<svg width="54" height="99" viewBox="0 0 54 99" fill="none" xmlns="http://www.w3.org/2000/svg">
<path d="M9.08203 68.1445H6.67969L6.12793 70H5.20996L7.5 62.8906H8.2666L10.5615 70H9.64355L9.08203 68.1445ZM6.91406 67.373H8.85254L7.88086 64.1406L6.91406 67.373ZM13.4022 69.3604C13.6886 69.3604 13.9181 69.2725 14.0907 69.0967C14.2632 68.9176 14.3576 68.6637 14.3739 68.335H15.1893C15.1698 68.8428 14.9891 69.2643 14.6473 69.5996C14.3088 69.9316 13.8937 70.0977 13.4022 70.0977C12.7479 70.0977 12.2482 69.8926 11.9032 69.4824C11.5614 69.069 11.3905 68.4554 11.3905 67.6416V67.0605C11.3905 66.263 11.5614 65.6576 11.9032 65.2441C12.245 64.8275 12.743 64.6191 13.3973 64.6191C13.9377 64.6191 14.3657 64.79 14.6815 65.1318C15.0005 65.4736 15.1698 65.9408 15.1893 66.5332H14.3739C14.3543 66.1426 14.2599 65.8496 14.0907 65.6543C13.9246 65.459 13.6935 65.3613 13.3973 65.3613C13.0132 65.3613 12.7284 65.4883 12.5428 65.7422C12.3573 65.9928 12.2612 66.4062 12.2547 66.9824V67.6562C12.2547 68.278 12.3459 68.7174 12.5282 68.9746C12.7137 69.2318 13.0051 69.3604 13.4022 69.3604ZM18.1813 69.3604C18.4678 69.3604 18.6973 69.2725 18.8698 69.0967C19.0423 68.9176 19.1367 68.6637 19.153 68.335H19.9684C19.9489 68.8428 19.7682 69.2643 19.4264 69.5996C19.0879 69.9316 18.6729 70.0977 18.1813 70.0977C17.527 70.0977 17.0274 69.8926 16.6823 69.4824C16.3405 69.069 16.1696 68.4554 16.1696 67.6416V67.0605C16.1696 66.263 16.3405 65.6576 16.6823 65.2441C17.0241 64.8275 17.5221 64.6191 18.1764 64.6191C18.7168 64.6191 19.1449 64.79 19.4606 65.1318C19.7796 65.4736 19.9489 65.9408 19.9684 66.5332H19.153C19.1335 66.1426 19.0391 65.8496 18.8698 65.6543C18.7038 65.459 18.4727 65.3613 18.1764 65.3613C17.7923 65.3613 17.5075 65.4883 17.322 65.7422C17.1364 65.9928 17.0404 66.4062 17.0339 66.9824V67.6562C17.0339 68.278 17.125 68.7174 17.3073 68.9746C17.4929 69.2318 17.7842 69.3604 18.1813 69.3604ZM23.3071 65.5273C23.1867 65.5046 23.0565 65.4932 22.9165 65.4932C22.4738 65.4932 22.1646 65.7357 21.9888 66.2207V70H21.1245V64.7168H21.9644L21.979 65.2539C22.2101 64.8307 22.5373 64.6191 22.9605 64.6191C23.0972 64.6191 23.2111 64.6419 23.3023 64.6875L23.3071 65.5273ZM26.2211 70.0977C25.5635 70.0977 25.0589 69.9023 24.7074 69.5117C24.3558 69.1178 24.1768 68.5417 24.1703 67.7832V67.1436C24.1703 66.3558 24.3412 65.7389 24.683 65.293C25.028 64.8438 25.5082 64.6191 26.1234 64.6191C26.7419 64.6191 27.2041 64.8161 27.5101 65.21C27.8161 65.6038 27.9724 66.2174 27.9789 67.0508V67.6172H25.0296V67.7393C25.0296 68.3057 25.1354 68.7174 25.347 68.9746C25.5619 69.2318 25.8695 69.3604 26.2699 69.3604C26.5238 69.3604 26.7468 69.3132 26.9388 69.2188C27.1341 69.1211 27.3164 68.9681 27.4857 68.7598L27.9349 69.3066C27.5606 69.834 26.9893 70.0977 26.2211 70.0977ZM26.1234 65.3613C25.7653 65.3613 25.5 65.485 25.3275 65.7324C25.155 65.9766 25.0573 66.3574 25.0345 66.875H27.1146V66.7578C27.0918 66.2565 27.0007 65.8984 26.8412 65.6836C26.6849 65.4688 26.4457 65.3613 26.1234 65.3613ZM28.9982 67.1191C28.9982 66.3053 29.1496 65.6852 29.4523 65.2588C29.7583 64.8324 30.1962 64.6191 30.7658 64.6191C31.2704 64.6191 31.6643 64.8242 31.9475 65.2344V62.5H32.8117V70H32.0207L31.9768 69.4336C31.6936 69.8763 31.2883 70.0977 30.7609 70.0977C30.2141 70.0977 29.7844 69.8861 29.4719 69.4629C29.1626 69.0365 29.0048 68.4359 28.9982 67.6611V67.1191ZM29.8625 67.6123C29.8625 68.2048 29.9504 68.641 30.1262 68.9209C30.302 69.1976 30.5884 69.3359 30.9855 69.3359C31.4152 69.3359 31.7359 69.1195 31.9475 68.6865V66.0205C31.7261 65.5973 31.4071 65.3857 30.9904 65.3857C30.5933 65.3857 30.3068 65.5257 30.1311 65.8057C29.9553 66.0824 29.8658 66.5088 29.8625 67.085V67.6123ZM35.2325 70H34.3682V64.7168H35.2325V70ZM35.3008 63.3154C35.3008 63.4619 35.2601 63.584 35.1787 63.6816C35.0974 63.7793 34.9737 63.8281 34.8077 63.8281C34.6449 63.8281 34.5228 63.7793 34.4414 63.6816C34.3601 63.584 34.3194 63.4619 34.3194 63.3154C34.3194 63.1689 34.3601 63.0452 34.4414 62.9443C34.5228 62.8434 34.6449 62.793 34.8077 62.793C34.9704 62.793 35.0925 62.8451 35.1739 62.9492C35.2585 63.0501 35.3008 63.1722 35.3008 63.3154ZM37.8876 63.4375V64.7168H38.6835V65.415H37.8876V68.6914C37.8876 68.8997 37.9218 69.0576 37.9901 69.165C38.0585 69.2725 38.1757 69.3262 38.3417 69.3262C38.4556 69.3262 38.5712 69.3066 38.6884 69.2676L38.6786 70C38.4833 70.0651 38.2831 70.0977 38.078 70.0977C37.7362 70.0977 37.4758 69.9756 37.2968 69.7314C37.1177 69.4873 37.0282 69.1423 37.0282 68.6963V65.415H36.2225V64.7168H37.0282V63.4375H37.8876ZM41.7634 70.0977C41.1058 70.0977 40.6013 69.9023 40.2497 69.5117C39.8982 69.1178 39.7191 68.5417 39.7126 67.7832V67.1436C39.7126 66.3558 39.8835 65.7389 40.2253 65.293C40.5704 64.8438 41.0505 64.6191 41.6657 64.6191C42.2842 64.6191 42.7465 64.8161 43.0525 65.21C43.3584 65.6038 43.5147 66.2174 43.5212 67.0508V67.6172H40.572V67.7393C40.572 68.3057 40.6778 68.7174 40.8894 68.9746C41.1042 69.2318 41.4118 69.3604 41.8122 69.3604C42.0661 69.3604 42.2891 69.3132 42.4812 69.2188C42.6765 69.1211 42.8588 68.9681 43.028 68.7598L43.4773 69.3066C43.1029 69.834 42.5316 70.0977 41.7634 70.0977ZM41.6657 65.3613C41.3077 65.3613 41.0424 65.485 40.8698 65.7324C40.6973 65.9766 40.5997 66.3574 40.5769 66.875H42.657V66.7578C42.6342 66.2565 42.543 65.8984 42.3835 65.6836C42.2273 65.4688 41.988 65.3613 41.6657 65.3613ZM44.5406 67.1191C44.5406 66.3053 44.692 65.6852 44.9947 65.2588C45.3007 64.8324 45.7385 64.6191 46.3082 64.6191C46.8127 64.6191 47.2066 64.8242 47.4898 65.2344V62.5H48.3541V70H47.563L47.5191 69.4336C47.2359 69.8763 46.8306 70.0977 46.3033 70.0977C45.7564 70.0977 45.3267 69.8861 45.0142 69.4629C44.705 69.0365 44.5471 68.4359 44.5406 67.6611V67.1191ZM45.4048 67.6123C45.4048 68.2048 45.4927 68.641 45.6685 68.9209C45.8443 69.1976 46.1308 69.3359 46.5279 69.3359C46.9576 69.3359 47.2782 69.1195 47.4898 68.6865V66.0205C47.2684 65.5973 46.9494 65.3857 46.5328 65.3857C46.1356 65.3857 45.8492 65.5257 45.6734 65.8057C45.4976 66.0824 45.4081 66.5088 45.4048 67.085V67.6123ZM5.7666 82V74.8906H7.79297C8.44076 74.8906 8.92741 75.0485 9.25293 75.3643C9.58171 75.68 9.74609 76.1536 9.74609 76.7852C9.74609 77.1172 9.66309 77.4102 9.49707 77.6641C9.33105 77.918 9.10645 78.1149 8.82324 78.2549C9.14876 78.3525 9.40592 78.5527 9.59473 78.8555C9.78678 79.1582 9.88281 79.5228 9.88281 79.9492C9.88281 80.5872 9.70703 81.0885 9.35547 81.4531C9.00716 81.8177 8.50911 82 7.86133 82H5.7666ZM6.66016 78.6748V81.2334H7.88086C8.2194 81.2334 8.48796 81.1227 8.68652 80.9014C8.88509 80.6768 8.98438 80.3626 8.98438 79.959C8.98438 79.1029 8.62305 78.6748 7.90039 78.6748H6.66016ZM6.66016 77.9229H7.80762C8.11686 77.9229 8.36589 77.8187 8.55469 77.6104C8.74674 77.402 8.84277 77.1253 8.84277 76.7803C8.84277 76.3896 8.75651 76.1064 8.58398 75.9307C8.41146 75.7516 8.14779 75.6621 7.79297 75.6621H6.66016V77.9229ZM13.9588 81.5361C13.6724 81.9105 13.2541 82.0977 12.7039 82.0977C12.2254 82.0977 11.8641 81.9333 11.62 81.6045C11.3758 81.2725 11.2521 80.7907 11.2489 80.1592V76.7168H12.1082V80.0957C12.1082 80.9193 12.3556 81.3311 12.8504 81.3311C13.3745 81.3311 13.7358 81.0967 13.9344 80.6279V76.7168H14.7987V82H13.9784L13.9588 81.5361ZM18.8259 80.6475C18.8259 80.4619 18.7559 80.3024 18.6159 80.1689C18.4759 80.0355 18.2057 79.8792 17.8054 79.7002C17.3399 79.5081 17.0111 79.3438 16.819 79.207C16.6302 79.0703 16.4886 78.9157 16.3942 78.7432C16.2998 78.5674 16.2526 78.359 16.2526 78.1182C16.2526 77.6885 16.4089 77.332 16.7214 77.0488C17.0371 76.7624 17.4391 76.6191 17.9274 76.6191C18.4417 76.6191 18.8552 76.7689 19.1677 77.0684C19.4802 77.3678 19.6364 77.752 19.6364 78.2207H18.777C18.777 77.9831 18.6973 77.7812 18.5378 77.6152C18.3783 77.446 18.1748 77.3613 17.9274 77.3613C17.6735 77.3613 17.4733 77.4281 17.3268 77.5615C17.1836 77.6917 17.112 77.8675 17.112 78.0889C17.112 78.2646 17.1641 78.4062 17.2682 78.5137C17.3757 78.6211 17.6312 78.7627 18.0348 78.9385C18.6761 79.1891 19.1123 79.4349 19.3434 79.6758C19.5746 79.9134 19.6901 80.2161 19.6901 80.584C19.6901 81.043 19.5322 81.4108 19.2165 81.6875C18.9007 81.9609 18.4776 82.0977 17.947 82.0977C17.3968 82.0977 16.9509 81.9398 16.6091 81.624C16.2673 81.3083 16.0964 80.9079 16.0964 80.4229H16.9655C16.9753 80.7158 17.0648 80.9453 17.2341 81.1113C17.4033 81.2773 17.641 81.3604 17.947 81.3604C18.2334 81.3604 18.4515 81.2969 18.6012 81.1699C18.751 81.0397 18.8259 80.8656 18.8259 80.6475ZM21.9107 82H21.0464V76.7168H21.9107V82ZM21.979 75.3154C21.979 75.4619 21.9383 75.584 21.857 75.6816C21.7756 75.7793 21.6519 75.8281 21.4859 75.8281C21.3231 75.8281 21.201 75.7793 21.1196 75.6816C21.0383 75.584 20.9976 75.4619 20.9976 75.3154C20.9976 75.1689 21.0383 75.0452 21.1196 74.9443C21.201 74.8434 21.3231 74.793 21.4859 74.793C21.6486 74.793 21.7707 74.8451 21.8521 74.9492C21.9367 75.0501 21.979 75.1722 21.979 75.3154ZM24.2484 76.7168L24.2728 77.2881C24.6081 76.8421 25.0362 76.6191 25.557 76.6191C26.4912 76.6191 26.9649 77.2425 26.9779 78.4893V82H26.1185V78.5283C26.1185 78.1149 26.0485 77.8219 25.9086 77.6494C25.7718 77.4736 25.5651 77.3857 25.2884 77.3857C25.0736 77.3857 24.8799 77.4574 24.7074 77.6006C24.5381 77.7438 24.4014 77.931 24.2972 78.1621V82H23.433V76.7168H24.2484ZM30.3264 82.0977C29.6688 82.0977 29.1643 81.9023 28.8127 81.5117C28.4611 81.1178 28.2821 80.5417 28.2756 79.7832V79.1436C28.2756 78.3558 28.4465 77.7389 28.7883 77.293C29.1333 76.8438 29.6135 76.6191 30.2287 76.6191C30.8472 76.6191 31.3094 76.8161 31.6154 77.21C31.9214 77.6038 32.0777 78.2174 32.0842 79.0508V79.6172H29.135V79.7393C29.135 80.3057 29.2408 80.7174 29.4523 80.9746C29.6672 81.2318 29.9748 81.3604 30.3752 81.3604C30.6291 81.3604 30.8521 81.3132 31.0441 81.2188C31.2395 81.1211 31.4217 80.9681 31.591 80.7598L32.0402 81.3066C31.6659 81.834 31.0946 82.0977 30.3264 82.0977ZM30.2287 77.3613C29.8706 77.3613 29.6053 77.485 29.4328 77.7324C29.2603 77.9766 29.1626 78.3574 29.1398 78.875H31.2199V78.7578C31.1971 78.2565 31.106 77.8984 30.9465 77.6836C30.7902 77.4688 30.551 77.3613 30.2287 77.3613ZM35.8526 80.6475C35.8526 80.4619 35.7826 80.3024 35.6426 80.1689C35.5026 80.0355 35.2325 79.8792 34.8321 79.7002C34.3666 79.5081 34.0378 79.3438 33.8457 79.207C33.6569 79.0703 33.5153 78.9157 33.4209 78.7432C33.3265 78.5674 33.2793 78.359 33.2793 78.1182C33.2793 77.6885 33.4356 77.332 33.7481 77.0488C34.0638 76.7624 34.4659 76.6191 34.9541 76.6191C35.4685 76.6191 35.8819 76.7689 36.1944 77.0684C36.5069 77.3678 36.6631 77.752 36.6631 78.2207H35.8037C35.8037 77.9831 35.724 77.7812 35.5645 77.6152C35.405 77.446 35.2015 77.3613 34.9541 77.3613C34.7002 77.3613 34.5 77.4281 34.3536 77.5615C34.2103 77.6917 34.1387 77.8675 34.1387 78.0889C34.1387 78.2646 34.1908 78.4062 34.295 78.5137C34.4024 78.6211 34.6579 78.7627 35.0616 78.9385C35.7028 79.1891 36.139 79.4349 36.3702 79.6758C36.6013 79.9134 36.7168 80.2161 36.7168 80.584C36.7168 81.043 36.559 81.4108 36.2432 81.6875C35.9274 81.9609 35.5043 82.0977 34.9737 82.0977C34.4235 82.0977 33.9776 81.9398 33.6358 81.624C33.294 81.3083 33.1231 80.9079 33.1231 80.4229H33.9922C34.002 80.7158 34.0915 80.9453 34.2608 81.1113C34.4301 81.2773 34.6677 81.3604 34.9737 81.3604C35.2601 81.3604 35.4782 81.2969 35.628 81.1699C35.7777 81.0397 35.8526 80.8656 35.8526 80.6475ZM40.5731 80.6475C40.5731 80.4619 40.5031 80.3024 40.3632 80.1689C40.2232 80.0355 39.953 79.8792 39.5526 79.7002C39.0871 79.5081 38.7583 79.3438 38.5663 79.207C38.3775 79.0703 38.2359 78.9157 38.1415 78.7432C38.0471 78.5674 37.9999 78.359 37.9999 78.1182C37.9999 77.6885 38.1561 77.332 38.4686 77.0488C38.7844 76.7624 39.1864 76.6191 39.6747 76.6191C40.189 76.6191 40.6024 76.7689 40.9149 77.0684C41.2274 77.3678 41.3837 77.752 41.3837 78.2207H40.5243C40.5243 77.9831 40.4445 77.7812 40.285 77.6152C40.1255 77.446 39.9221 77.3613 39.6747 77.3613C39.4208 77.3613 39.2206 77.4281 39.0741 77.5615C38.9309 77.6917 38.8593 77.8675 38.8593 78.0889C38.8593 78.2646 38.9113 78.4062 39.0155 78.5137C39.1229 78.6211 39.3785 78.7627 39.7821 78.9385C40.4234 79.1891 40.8596 79.4349 41.0907 79.6758C41.3218 79.9134 41.4374 80.2161 41.4374 80.584C41.4374 81.043 41.2795 81.4108 40.9637 81.6875C40.648 81.9609 40.2248 82.0977 39.6942 82.0977C39.1441 82.0977 38.6981 81.9398 38.3563 81.624C38.0145 81.3083 37.8436 80.9079 37.8436 80.4229H38.7128C38.7225 80.7158 38.8121 80.9453 38.9813 81.1113C39.1506 81.2773 39.3882 81.3604 39.6942 81.3604C39.9807 81.3604 40.1988 81.2969 40.3485 81.1699C40.4983 81.0397 40.5731 80.8656 40.5731 80.6475Z" fill="#5B5A5A" fill-opacity="0.8"/>
<path d="M30.5393 28.1982H13.2944L12.6687 30.259H17.2638L18.1415 33.1026H25.6959L26.5698 30.259H31.1651L30.5393 28.1982ZM16.109 16.6179C15.4697 17.5002 15.2119 18.5774 15.3829 19.6515C15.5555 20.7278 16.1355 21.6722 17.0159 22.3109L21.1429 25.3088C21.2516 25.3871 21.3436 25.4861 21.4137 25.6003C21.4838 25.7144 21.5305 25.8414 21.5511 25.9737C21.5725 26.1062 21.5675 26.2416 21.5363 26.3721C21.5052 26.5027 21.4486 26.6258 21.3697 26.7343L21.9917 27.1834L24.1717 24.1764C24.6817 23.4724 24.9489 22.6437 24.9489 21.7912C24.9489 21.5758 24.9317 21.3589 24.8971 21.142C24.7255 20.0672 24.1457 19.1231 23.2644 18.4836L19.1377 15.485C19.029 15.4067 18.9369 15.3076 18.8668 15.1934C18.7966 15.0793 18.7498 14.9524 18.729 14.82C18.7205 14.7659 18.7162 14.7113 18.716 14.6565C18.716 14.4427 18.7825 14.2358 18.9097 14.0612L18.2894 13.6099L16.109 16.6179ZM18.5962 4.56463C17.8564 5.58463 17.4691 6.78656 17.4691 8.02393C17.4691 8.33634 17.4938 8.65113 17.5437 8.96583C17.7926 10.5251 18.6339 11.8941 19.9126 12.8212L25.0992 16.5779C25.7838 17.0741 26.2348 17.8081 26.3686 18.6445C26.3951 18.8125 26.4084 18.9809 26.4084 19.1478C26.4084 19.8108 26.2005 20.4551 25.8037 21.0018L26.3004 21.3622L30.3879 15.7135C31.3149 14.4362 31.689 12.8733 31.4407 11.3131C31.192 9.75363 30.3511 8.38432 29.0723 7.45726L22.8084 2.90654C22.6142 2.76624 22.4497 2.58889 22.3244 2.38473C22.1991 2.18056 22.1155 1.95362 22.0783 1.71697C22.0017 1.23663 22.1169 0.754928 22.4024 0.359838L21.9058 0L18.5962 4.56463ZM12.8409 43.037C13.8293 43.037 14.4254 42.6882 14.4254 41.9328V41.9032C14.4254 41.2201 13.9165 40.7986 12.7681 40.7986H10.1805V43.037H12.8409ZM12.2448 38.938C13.2334 38.938 13.8584 38.618 13.8584 37.8623V37.8328C13.8584 37.1642 13.3352 36.7864 12.39 36.7864H10.1806V38.938H12.2448ZM8.00009 34.8237H12.7246C13.8875 34.8237 14.8034 35.1437 15.3849 35.7252C15.8501 36.1904 16.0826 36.7573 16.0826 37.4552V37.4841C16.0826 38.6325 15.4722 39.2723 14.7454 39.679C15.9227 40.13 16.6496 40.8132 16.6496 42.1798V42.2088C16.6496 44.0692 15.1377 45 12.841 45H8L8.00009 34.8237ZM22.4643 43.037C23.4526 43.037 24.0487 42.6882 24.0487 41.9328V41.9032C24.0487 41.2201 23.54 40.7986 22.3915 40.7986H19.8039V43.037H22.4643ZM21.8682 38.938C22.8566 38.938 23.4816 38.618 23.4816 37.8623V37.8328C23.4816 37.1642 22.9585 36.7864 22.0135 36.7864H19.8039V38.938H21.8682ZM17.6232 34.8237H22.3479C23.511 34.8237 24.4267 35.1437 25.0083 35.7252C25.4731 36.1904 25.706 36.7573 25.706 37.4552V37.4841C25.706 38.6325 25.0954 39.2723 24.3684 39.679C25.5459 40.13 26.2729 40.8132 26.2729 42.1798V42.2088C26.2729 44.0692 24.7612 45 22.4643 45H17.6232L17.6232 34.8237ZM32.0875 43.037C33.0761 43.037 33.6722 42.6882 33.6722 41.9328V41.9032C33.6722 41.2201 33.1633 40.7986 32.0149 40.7986H29.4272V43.037H32.0875ZM31.4915 38.938C32.4798 38.938 33.1053 38.618 33.1053 37.8623V37.8328C33.1053 37.1642 32.5816 36.7864 31.637 36.7864H29.4272V38.938H31.4915ZM27.2469 34.8237H31.9714C33.1344 34.8237 34.0499 35.1437 34.6319 35.7252C35.0971 36.1904 35.3296 36.7573 35.3296 37.4552V37.4841C35.3296 38.6325 34.719 39.2723 33.992 39.679C35.1696 40.13 35.8965 40.8132 35.8965 42.1798V42.2088C35.8965 44.0692 34.3844 45 32.0875 45H27.2469V34.8237Z" fill="#5B5A5A" fill-opacity="0.6"/>
</svg>
