<svg width="56" height="99" viewBox="0 0 56 99" fill="none" xmlns="http://www.w3.org/2000/svg">
<g clip-path="url(#clip0)">
<path d="M7.00282 8.17439V9.42779C7.00282 9.75477 6.78483 9.97275 6.45786 9.97275C6.13088 9.97275 5.9129 9.75477 5.9129 9.42779V8.17439C5.9129 7.84741 6.13088 7.62943 6.45786 7.62943C6.78483 7.62943 7.00282 7.84741 7.00282 8.17439ZM8.80118 17.0572C9.12816 17.0572 9.34614 16.8392 9.34614 16.5123V15.2589C9.34614 14.9319 9.12816 14.7139 8.80118 14.7139C8.47421 14.7139 8.25622 14.9319 8.25622 15.2589V16.5123C8.25622 16.8392 8.47421 17.0572 8.80118 17.0572ZM13.5423 14.7139C13.2154 14.7139 12.9974 14.9319 12.9974 15.2589V16.5123C12.9974 16.8392 13.2154 17.0572 13.5423 17.0572C13.8693 17.0572 14.0873 16.8392 14.0873 16.5123V15.2589C14.0873 14.9319 13.8148 14.7139 13.5423 14.7139ZM13.5423 9.97275C13.2154 9.97275 12.9974 10.1907 12.9974 10.5177V11.7711C12.9974 12.0981 13.2154 12.3161 13.5423 12.3161C13.8693 12.3161 14.0873 12.0981 14.0873 11.7711V10.5177C14.0873 10.2452 13.8148 9.97275 13.5423 9.97275ZM15.8856 9.97275C15.5587 9.97275 15.3407 10.1907 15.3407 10.5177V11.7711C15.3407 12.0981 15.5587 12.3161 15.8856 12.3161C16.2126 12.3161 16.4306 12.0981 16.4306 11.7711V10.5177C16.4306 10.2452 16.2126 9.97275 15.8856 9.97275ZM17.684 10.5177V11.7711C17.684 12.0981 17.902 12.3161 18.229 12.3161C18.5559 12.3161 18.7739 12.0981 18.7739 11.7711V10.5177C18.7739 10.1907 18.5559 9.97275 18.229 9.97275C17.902 9.97275 17.684 10.2452 17.684 10.5177ZM8.80118 7.62943C8.47421 7.62943 8.25622 7.84741 8.25622 8.17439V9.42779C8.25622 9.75477 8.47421 9.97275 8.80118 9.97275C9.12816 9.97275 9.34614 9.75477 9.34614 9.42779V8.17439C9.34614 7.84741 9.12816 7.62943 8.80118 7.62943ZM6.45786 5.2861C6.78483 5.2861 7.00282 5.06812 7.00282 4.74114V3.43324C7.00282 3.10627 6.78483 2.88828 6.45786 2.88828C6.13088 2.88828 5.9129 3.10627 5.9129 3.43324V4.68665C5.9129 5.01362 6.13088 5.2861 6.45786 5.2861ZM8.80118 2.88828C8.47421 2.88828 8.25622 3.10627 8.25622 3.43324V4.68665C8.25622 5.01362 8.47421 5.23161 8.80118 5.23161C9.12816 5.23161 9.34614 5.01362 9.34614 4.68665V3.43324C9.34614 3.16076 9.12816 2.88828 8.80118 2.88828ZM11.1445 5.2861C11.4715 5.2861 11.6895 5.06812 11.6895 4.74114V3.43324C11.6895 3.10627 11.4715 2.88828 11.1445 2.88828C10.8175 2.88828 10.5995 3.10627 10.5995 3.43324V4.68665C10.5995 5.01362 10.872 5.2861 11.1445 5.2861ZM13.5423 5.2861C13.8693 5.2861 14.0873 5.06812 14.0873 4.74114V3.43324C14.0873 3.10627 13.8693 2.88828 13.5423 2.88828C13.2154 2.88828 12.9974 3.10627 12.9974 3.43324V4.68665C12.9974 5.01362 13.2154 5.2861 13.5423 5.2861ZM21.1718 9.97275V19.4005C21.1718 19.7275 20.9538 19.9455 20.6268 19.9455H18.2835H15.8856H11.1445H6.45786H4.06004H1.71671C1.38974 19.9455 1.17175 19.7275 1.17175 19.4005V12.3161C1.17175 11.9891 1.38974 11.7711 1.71671 11.7711H3.51508V0.544959C3.51508 0.217984 3.73306 0 4.06004 0H18.229C18.5559 0 18.7739 0.217984 18.7739 0.544959V7.41144L20.9538 9.59128C21.1173 9.70027 21.1718 9.86376 21.1718 9.97275ZM4.605 11.8256H10.5995V10.0272V8.17439C10.5995 7.84741 10.8175 7.62943 11.1445 7.62943C11.4715 7.62943 11.6895 7.84741 11.6895 8.17439V8.66485L15.3952 4.95913C15.3952 4.90463 15.3407 4.79564 15.3407 4.74114V3.43324C15.3407 3.10627 15.5587 2.88828 15.8856 2.88828C16.2126 2.88828 16.4306 3.10627 16.4306 3.43324V4.68665C16.4306 4.79564 16.3761 4.85014 16.3761 4.95913L17.7385 6.32152V1.08992H4.65949L4.605 11.8256ZM2.26167 18.9101H3.51508V14.7139C3.51508 14.3869 3.73306 14.1689 4.06004 14.1689H6.40336C6.73034 14.1689 6.94832 14.3869 6.94832 14.7139V18.9101H10.5995V12.9155H2.26167V18.9101ZM5.9129 18.9101V15.2589H4.605V18.9101H5.9129ZM17.684 18.9101V15.2589H16.4306V18.9101H17.684ZM20.0818 10.1907L17.902 8.0109L15.8856 6.04905L11.6895 10.2452V12.3706V18.9101H15.3407V14.7139C15.3407 14.3869 15.5587 14.1689 15.8856 14.1689H18.229C18.5559 14.1689 18.7739 14.3869 18.7739 14.7139V18.9101H20.0273V10.1907H20.0818Z" fill="#5B5A5A" fill-opacity="0.8"/>
</g>
<path d="M8.18341 46H5.40997V35.1406L2.7049 36.1855V33.8809L7.89044 31.7617H8.18341V46ZM12.5193 44.5938C12.5193 44.151 12.6658 43.7865 12.9588 43.5C13.2583 43.2135 13.6457 43.0703 14.1209 43.0703C14.5832 43.0703 14.9673 43.2135 15.2733 43.5C15.5792 43.7799 15.7322 44.1445 15.7322 44.5938C15.7322 45.0495 15.576 45.4173 15.2635 45.6973C14.9575 45.9707 14.5766 46.1074 14.1209 46.1074C13.6587 46.1074 13.2746 45.9674 12.9686 45.6875C12.6691 45.4076 12.5193 45.043 12.5193 44.5938ZM26.3768 33.373L21.8846 46H18.9647L23.4764 34.0762H17.7733V31.7812H26.3768V33.373ZM32.119 31.7812L34.8045 42.0645L37.4803 31.7812H41.2303V46H38.3494V42.1523L38.6131 36.2246L35.7713 46H33.8182L30.9764 36.2246L31.2401 42.1523V46H28.369V31.7812H32.119Z" fill="#5B5A5A" fill-opacity="0.6"/>
<path d="M3.91504 70.124H2.66504V73H1.7666V65.8906H3.75879C4.4554 65.8906 4.98275 66.0729 5.34082 66.4375C5.69889 66.7988 5.87793 67.3294 5.87793 68.0293C5.87793 68.4688 5.78027 68.8529 5.58496 69.1816C5.3929 69.5072 5.11947 69.7529 4.76465 69.9189L6.1416 72.9414V73H5.17969L3.91504 70.124ZM2.66504 69.3574H3.74902C4.12337 69.3574 4.42122 69.237 4.64258 68.9961C4.86719 68.7552 4.97949 68.4329 4.97949 68.0293C4.97949 67.1178 4.56608 66.6621 3.73926 66.6621H2.66504V69.3574ZM9.00668 73.0977C8.34913 73.0977 7.84457 72.9023 7.49301 72.5117C7.14145 72.1178 6.96241 71.5417 6.9559 70.7832V70.1436C6.9559 69.3558 7.1268 68.7389 7.46859 68.293C7.81365 67.8438 8.29379 67.6191 8.90902 67.6191C9.52751 67.6191 9.98975 67.8161 10.2957 68.21C10.6017 68.6038 10.758 69.2174 10.7645 70.0508V70.6172H7.81527V70.7393C7.81527 71.3057 7.92107 71.7174 8.13266 71.9746C8.3475 72.2318 8.65512 72.3604 9.05551 72.3604C9.30941 72.3604 9.5324 72.3132 9.72445 72.2188C9.91977 72.1211 10.1021 71.9681 10.2713 71.7598L10.7205 72.3066C10.3462 72.834 9.77491 73.0977 9.00668 73.0977ZM8.90902 68.3613C8.55095 68.3613 8.28565 68.485 8.11312 68.7324C7.9406 68.9766 7.84294 69.3574 7.82016 69.875H9.90023V69.7578C9.87745 69.2565 9.7863 68.8984 9.6268 68.6836C9.47055 68.4688 9.23129 68.3613 8.90902 68.3613ZM14.5329 71.6475C14.5329 71.4619 14.4629 71.3024 14.3229 71.1689C14.183 71.0355 13.9128 70.8792 13.5124 70.7002C13.0469 70.5081 12.7181 70.3438 12.5261 70.207C12.3373 70.0703 12.1957 69.9157 12.1012 69.7432C12.0068 69.5674 11.9596 69.359 11.9596 69.1182C11.9596 68.6885 12.1159 68.332 12.4284 68.0488C12.7442 67.7624 13.1462 67.6191 13.6345 67.6191C14.1488 67.6191 14.5622 67.7689 14.8747 68.0684C15.1872 68.3678 15.3434 68.752 15.3434 69.2207H14.4841C14.4841 68.9831 14.4043 68.7812 14.2448 68.6152C14.0853 68.446 13.8818 68.3613 13.6345 68.3613C13.3805 68.3613 13.1804 68.4281 13.0339 68.5615C12.8906 68.6917 12.819 68.8675 12.819 69.0889C12.819 69.2646 12.8711 69.4062 12.9753 69.5137C13.0827 69.6211 13.3382 69.7627 13.7419 69.9385C14.3832 70.1891 14.8193 70.4349 15.0505 70.6758C15.2816 70.9134 15.3971 71.2161 15.3971 71.584C15.3971 72.043 15.2393 72.4108 14.9235 72.6875C14.6078 72.9609 14.1846 73.0977 13.654 73.0977C13.1039 73.0977 12.6579 72.9398 12.3161 72.624C11.9743 72.3083 11.8034 71.9079 11.8034 71.4229H12.6725C12.6823 71.7158 12.7718 71.9453 12.9411 72.1113C13.1104 72.2773 13.348 72.3604 13.654 72.3604C13.9404 72.3604 14.1585 72.2969 14.3083 72.1699C14.458 72.0397 14.5329 71.8656 14.5329 71.6475ZM17.6177 73H16.7534V67.7168H17.6177V73ZM17.6861 66.3154C17.6861 66.4619 17.6454 66.584 17.564 66.6816C17.4826 66.7793 17.3589 66.8281 17.1929 66.8281C17.0301 66.8281 16.9081 66.7793 16.8267 66.6816C16.7453 66.584 16.7046 66.4619 16.7046 66.3154C16.7046 66.1689 16.7453 66.0452 16.8267 65.9443C16.9081 65.8434 17.0301 65.793 17.1929 65.793C17.3557 65.793 17.4777 65.8451 17.5591 65.9492C17.6437 66.0501 17.6861 66.1722 17.6861 66.3154ZM18.9593 70.1191C18.9593 69.3053 19.1107 68.6852 19.4134 68.2588C19.7194 67.8324 20.1573 67.6191 20.7269 67.6191C21.2315 67.6191 21.6254 67.8242 21.9086 68.2344V65.5H22.7728V73H21.9818L21.9379 72.4336C21.6546 72.8763 21.2494 73.0977 20.722 73.0977C20.1752 73.0977 19.7455 72.8861 19.433 72.4629C19.1237 72.0365 18.9658 71.4359 18.9593 70.6611V70.1191ZM19.8236 70.6123C19.8236 71.2048 19.9115 71.641 20.0873 71.9209C20.263 72.1976 20.5495 72.3359 20.9466 72.3359C21.3763 72.3359 21.697 72.1195 21.9086 71.6865V69.0205C21.6872 68.5973 21.3682 68.3857 20.9515 68.3857C20.5544 68.3857 20.2679 68.5257 20.0921 68.8057C19.9164 69.0824 19.8268 69.5088 19.8236 70.085V70.6123ZM26.1506 73.0977C25.493 73.0977 24.9885 72.9023 24.6369 72.5117C24.2854 72.1178 24.1063 71.5417 24.0998 70.7832V70.1436C24.0998 69.3558 24.2707 68.7389 24.6125 68.293C24.9576 67.8438 25.4377 67.6191 26.0529 67.6191C26.6714 67.6191 27.1337 67.8161 27.4396 68.21C27.7456 68.6038 27.9019 69.2174 27.9084 70.0508V70.6172H24.9592V70.7393C24.9592 71.3057 25.065 71.7174 25.2766 71.9746C25.4914 72.2318 25.799 72.3604 26.1994 72.3604C26.4533 72.3604 26.6763 72.3132 26.8684 72.2188C27.0637 72.1211 27.246 71.9681 27.4152 71.7598L27.8645 72.3066C27.4901 72.834 26.9188 73.0977 26.1506 73.0977ZM26.0529 68.3613C25.6949 68.3613 25.4296 68.485 25.257 68.7324C25.0845 68.9766 24.9868 69.3574 24.9641 69.875H27.0441V69.7578C27.0214 69.2565 26.9302 68.8984 26.7707 68.6836C26.6145 68.4688 26.3752 68.3613 26.0529 68.3613ZM29.9239 67.7168L29.9483 68.2881C30.2836 67.8421 30.7116 67.6191 31.2325 67.6191C32.1667 67.6191 32.6403 68.2425 32.6534 69.4893V73H31.794V69.5283C31.794 69.1149 31.724 68.8219 31.584 68.6494C31.4473 68.4736 31.2406 68.3857 30.9639 68.3857C30.7491 68.3857 30.5554 68.4574 30.3829 68.6006C30.2136 68.7438 30.0769 68.931 29.9727 69.1621V73H29.1084V67.7168H29.9239ZM35.245 66.4375V67.7168H36.0409V68.415H35.245V71.6914C35.245 71.8997 35.2792 72.0576 35.3475 72.165C35.4159 72.2725 35.5331 72.3262 35.6991 72.3262C35.813 72.3262 35.9286 72.3066 36.0458 72.2676L36.036 73C35.8407 73.0651 35.6405 73.0977 35.4354 73.0977C35.0936 73.0977 34.8332 72.9756 34.6542 72.7314C34.4751 72.4873 34.3856 72.1423 34.3856 71.6963V68.415H33.58V67.7168H34.3856V66.4375H35.245ZM38.1638 73H37.2995V67.7168H38.1638V73ZM38.2321 66.3154C38.2321 66.4619 38.1915 66.584 38.1101 66.6816C38.0287 66.7793 37.905 66.8281 37.739 66.8281C37.5762 66.8281 37.4542 66.7793 37.3728 66.6816C37.2914 66.584 37.2507 66.4619 37.2507 66.3154C37.2507 66.1689 37.2914 66.0452 37.3728 65.9443C37.4542 65.8434 37.5762 65.793 37.739 65.793C37.9017 65.793 38.0238 65.8451 38.1052 65.9492C38.1898 66.0501 38.2321 66.1722 38.2321 66.3154ZM42.4058 73C42.3537 72.8861 42.3163 72.694 42.2935 72.4238C41.9875 72.873 41.5969 73.0977 41.1216 73.0977C40.6431 73.0977 40.2688 72.9642 39.9986 72.6973C39.7317 72.4271 39.5982 72.0479 39.5982 71.5596C39.5982 71.0225 39.7805 70.596 40.1451 70.2803C40.5097 69.9645 41.0093 69.8034 41.6441 69.7969H42.2789V69.2354C42.2789 68.9196 42.2089 68.695 42.0689 68.5615C41.9289 68.4281 41.7157 68.3613 41.4293 68.3613C41.1688 68.3613 40.9573 68.4395 40.7945 68.5957C40.6317 68.7487 40.5504 68.944 40.5504 69.1816H39.6861C39.6861 68.9115 39.7658 68.6543 39.9254 68.4102C40.0849 68.1628 40.2997 67.9691 40.5699 67.8291C40.8401 67.6891 41.1412 67.6191 41.4732 67.6191C42.0136 67.6191 42.4237 67.7542 42.7037 68.0244C42.9869 68.2913 43.1317 68.682 43.1382 69.1963V71.8623C43.1415 72.2692 43.1968 72.6224 43.3043 72.9219V73H42.4058ZM41.2535 72.3115C41.4651 72.3115 41.6669 72.2529 41.8589 72.1357C42.051 72.0186 42.191 71.8721 42.2789 71.6963V70.4365H41.7906C41.3804 70.443 41.0565 70.5358 40.8189 70.7148C40.5813 70.8906 40.4625 71.138 40.4625 71.457C40.4625 71.7565 40.5227 71.9746 40.6431 72.1113C40.7636 72.2448 40.967 72.3115 41.2535 72.3115ZM45.5736 73H44.7094V65.5H45.5736V73ZM49.4093 71.0908C49.4093 70.7555 49.489 70.4463 49.6485 70.1631C49.8113 69.8766 50.1205 69.5446 50.5762 69.167C50.3093 68.7926 50.1254 68.485 50.0245 68.2441C49.9268 68 49.878 67.7591 49.878 67.5215C49.878 66.9779 50.0164 66.5547 50.293 66.252C50.573 65.946 50.9473 65.793 51.4161 65.793C51.8458 65.793 52.199 65.9362 52.4757 66.2227C52.7524 66.5091 52.8907 66.8672 52.8907 67.2969C52.8907 67.5768 52.8354 67.8356 52.7247 68.0732C52.614 68.3109 52.4187 68.5518 52.1387 68.7959L51.6358 69.2256L52.8858 71.0273C53.0388 70.64 53.1153 70.2038 53.1153 69.7188H53.8868C53.8868 70.5391 53.7208 71.2161 53.3887 71.75L54.2579 73H53.2227L52.8614 72.4775C52.6759 72.6696 52.4512 72.821 52.1876 72.9316C51.9239 73.0423 51.6505 73.0977 51.3673 73.0977C50.7716 73.0977 50.2963 72.9121 49.9415 72.541C49.5867 72.1699 49.4093 71.6865 49.4093 71.0908ZM51.3673 72.3604C51.7481 72.3604 52.0981 72.1813 52.4171 71.8232L51.0059 69.7676L50.8595 69.8896C50.4656 70.264 50.2686 70.6644 50.2686 71.0908C50.2686 71.4684 50.3663 71.7744 50.5616 72.0088C50.7569 72.2432 51.0255 72.3604 51.3673 72.3604ZM50.7374 67.4922C50.7374 67.668 50.7813 67.8486 50.8692 68.0342C50.9571 68.2197 51.071 68.4167 51.211 68.625L51.587 68.3027C51.7856 68.1432 51.9206 67.9902 51.9923 67.8438C52.0639 67.694 52.0997 67.5117 52.0997 67.2969C52.0997 67.082 52.0346 66.9014 51.9044 66.7549C51.7742 66.6084 51.6098 66.5352 51.4112 66.5352C51.1996 66.5352 51.0336 66.6263 50.9132 66.8086C50.796 66.9909 50.7374 67.2188 50.7374 67.4922ZM6.22461 82.7441C6.18555 83.5059 5.9707 84.0885 5.58008 84.4922C5.19271 84.8958 4.64421 85.0977 3.93457 85.0977C3.22168 85.0977 2.65527 84.8275 2.23535 84.2871C1.81543 83.7435 1.60547 83.0078 1.60547 82.0801V80.791C1.60547 79.8665 1.82031 79.1357 2.25 78.5986C2.68294 78.0615 3.27214 77.793 4.01758 77.793C4.70443 77.793 5.23503 77.9997 5.60938 78.4131C5.98698 78.8232 6.19206 79.4108 6.22461 80.1758H5.32129C5.28223 79.5964 5.16016 79.1829 4.95508 78.9355C4.75 78.6882 4.4375 78.5645 4.01758 78.5645C3.53255 78.5645 3.15983 78.7549 2.89941 79.1357C2.639 79.5133 2.50879 80.0684 2.50879 80.8008V82.1045C2.50879 82.8239 2.62923 83.3757 2.87012 83.7598C3.11426 84.1439 3.46908 84.3359 3.93457 84.3359C4.40007 84.3359 4.73535 84.2204 4.94043 83.9893C5.14551 83.7581 5.27246 83.3431 5.32129 82.7441H6.22461ZM7.2977 82.1143C7.2977 81.346 7.48324 80.7389 7.85434 80.293C8.22868 79.8438 8.72185 79.6191 9.33383 79.6191C9.94581 79.6191 10.4373 79.8372 10.8084 80.2734C11.1828 80.7096 11.3748 81.3037 11.3846 82.0557V82.6123C11.3846 83.3773 11.1991 83.9827 10.828 84.4287C10.4569 84.8747 9.96208 85.0977 9.34359 85.0977C8.73161 85.0977 8.24008 84.8812 7.86898 84.4482C7.50115 84.0153 7.31072 83.4294 7.2977 82.6904V82.1143ZM8.16195 82.6123C8.16195 83.1559 8.26775 83.584 8.47934 83.8965C8.69418 84.2057 8.98227 84.3604 9.34359 84.3604C10.1053 84.3604 10.4976 83.8102 10.5204 82.71V82.1143C10.5204 81.5739 10.4129 81.1475 10.1981 80.835C9.98324 80.5192 9.69516 80.3613 9.33383 80.3613C8.97901 80.3613 8.69418 80.5192 8.47934 80.835C8.26775 81.1475 8.16195 81.5723 8.16195 82.1094V82.6123ZM13.4733 79.7168L13.4929 80.2051C13.8151 79.8145 14.2399 79.6191 14.7673 79.6191C15.3565 79.6191 15.7682 79.8747 16.0026 80.3857C16.3346 79.8747 16.7969 79.6191 17.3893 79.6191C18.3626 79.6191 18.8607 80.2262 18.8835 81.4404V85H18.0241V81.5234C18.0241 81.1393 17.9557 80.8545 17.819 80.6689C17.6823 80.4801 17.4512 80.3857 17.1257 80.3857C16.8652 80.3857 16.6537 80.4867 16.4909 80.6885C16.3281 80.8903 16.2337 81.1475 16.2077 81.46V85H15.3386V81.4844C15.3288 80.752 15.0309 80.3857 14.445 80.3857C14.0088 80.3857 13.7012 80.6038 13.5221 81.04V85H12.6628V79.7168H13.4733ZM21.1626 79.7168L21.1821 80.2051C21.5044 79.8145 21.9292 79.6191 22.4566 79.6191C23.0458 79.6191 23.4575 79.8747 23.6919 80.3857C24.0239 79.8747 24.4862 79.6191 25.0786 79.6191C26.0519 79.6191 26.55 80.2262 26.5728 81.4404V85H25.7134V81.5234C25.7134 81.1393 25.645 80.8545 25.5083 80.6689C25.3716 80.4801 25.1405 80.3857 24.815 80.3857C24.5545 80.3857 24.343 80.4867 24.1802 80.6885C24.0174 80.8903 23.923 81.1475 23.897 81.46V85H23.0279V81.4844C23.0181 80.752 22.7202 80.3857 22.1343 80.3857C21.6981 80.3857 21.3905 80.6038 21.2114 81.04V85H20.3521V79.7168H21.1626ZM29.9261 85.0977C29.2686 85.0977 28.764 84.9023 28.4125 84.5117C28.0609 84.1178 27.8819 83.5417 27.8754 82.7832V82.1436C27.8754 81.3558 28.0462 80.7389 28.388 80.293C28.7331 79.8438 29.2132 79.6191 29.8285 79.6191C30.447 79.6191 30.9092 79.8161 31.2152 80.21C31.5212 80.6038 31.6774 81.2174 31.6839 82.0508V82.6172H28.7347V82.7393C28.7347 83.3057 28.8405 83.7174 29.0521 83.9746C29.267 84.2318 29.5746 84.3604 29.975 84.3604C30.2289 84.3604 30.4518 84.3132 30.6439 84.2188C30.8392 84.1211 31.0215 83.9681 31.1908 83.7598L31.64 84.3066C31.2657 84.834 30.6944 85.0977 29.9261 85.0977ZM29.8285 80.3613C29.4704 80.3613 29.2051 80.485 29.0326 80.7324C28.8601 80.9766 28.7624 81.3574 28.7396 81.875H30.8197V81.7578C30.7969 81.2565 30.7058 80.8984 30.5462 80.6836C30.39 80.4688 30.1507 80.3613 29.8285 80.3613ZM35.0666 80.5273C34.9462 80.5046 34.8159 80.4932 34.676 80.4932C34.2333 80.4932 33.924 80.7357 33.7482 81.2207V85H32.884V79.7168H33.7238L33.7385 80.2539C33.9696 79.8307 34.2967 79.6191 34.7199 79.6191C34.8566 79.6191 34.9706 79.6419 35.0617 79.6875L35.0666 80.5273ZM37.8291 84.3604C38.1156 84.3604 38.3451 84.2725 38.5176 84.0967C38.6901 83.9176 38.7845 83.6637 38.8008 83.335H39.6162C39.5967 83.8428 39.4161 84.2643 39.0743 84.5996C38.7357 84.9316 38.3207 85.0977 37.8291 85.0977C37.1748 85.0977 36.6752 84.8926 36.3301 84.4824C35.9883 84.069 35.8174 83.4554 35.8174 82.6416V82.0605C35.8174 81.263 35.9883 80.6576 36.3301 80.2441C36.6719 79.8275 37.17 79.6191 37.8243 79.6191C38.3646 79.6191 38.7927 79.79 39.1084 80.1318C39.4274 80.4736 39.5967 80.9408 39.6162 81.5332H38.8008C38.7813 81.1426 38.6869 80.8496 38.5176 80.6543C38.3516 80.459 38.1205 80.3613 37.8243 80.3613C37.4401 80.3613 37.1553 80.4883 36.9698 80.7422C36.7842 80.9928 36.6882 81.4062 36.6817 81.9824V82.6562C36.6817 83.278 36.7728 83.7174 36.9551 83.9746C37.1407 84.2318 37.432 84.3604 37.8291 84.3604ZM41.705 85H40.8407V79.7168H41.705V85ZM41.7733 78.3154C41.7733 78.4619 41.7326 78.584 41.6512 78.6816C41.5699 78.7793 41.4462 78.8281 41.2802 78.8281C41.1174 78.8281 40.9953 78.7793 40.9139 78.6816C40.8326 78.584 40.7919 78.4619 40.7919 78.3154C40.7919 78.1689 40.8326 78.0452 40.9139 77.9443C40.9953 77.8434 41.1174 77.793 41.2802 77.793C41.4429 77.793 41.565 77.8451 41.6464 77.9492C41.731 78.0501 41.7733 78.1722 41.7733 78.3154ZM45.947 85C45.8949 84.8861 45.8575 84.694 45.8347 84.4238C45.5287 84.873 45.1381 85.0977 44.6628 85.0977C44.1843 85.0977 43.8099 84.9642 43.5398 84.6973C43.2728 84.4271 43.1394 84.0479 43.1394 83.5596C43.1394 83.0225 43.3217 82.596 43.6862 82.2803C44.0508 81.9645 44.5505 81.8034 45.1853 81.7969H45.82V81.2354C45.82 80.9196 45.7501 80.695 45.6101 80.5615C45.4701 80.4281 45.2569 80.3613 44.9704 80.3613C44.71 80.3613 44.4984 80.4395 44.3357 80.5957C44.1729 80.7487 44.0915 80.944 44.0915 81.1816H43.2273C43.2273 80.9115 43.307 80.6543 43.4665 80.4102C43.626 80.1628 43.8409 79.9691 44.1111 79.8291C44.3812 79.6891 44.6823 79.6191 45.0144 79.6191C45.5547 79.6191 45.9649 79.7542 46.2448 80.0244C46.528 80.2913 46.6729 80.682 46.6794 81.1963V83.8623C46.6827 84.2692 46.738 84.6224 46.8454 84.9219V85H45.947ZM44.7946 84.3115C45.0062 84.3115 45.2081 84.2529 45.4001 84.1357C45.5922 84.0186 45.7321 83.8721 45.82 83.6963V82.4365H45.3318C44.9216 82.443 44.5977 82.5358 44.3601 82.7148C44.1224 82.8906 44.0036 83.138 44.0036 83.457C44.0036 83.7565 44.0639 83.9746 44.1843 84.1113C44.3047 84.2448 44.5082 84.3115 44.7946 84.3115ZM49.1148 85H48.2505V77.5H49.1148V85ZM6.22461 93.7441C6.18555 94.5059 5.9707 95.0885 5.58008 95.4922C5.19271 95.8958 4.64421 96.0977 3.93457 96.0977C3.22168 96.0977 2.65527 95.8275 2.23535 95.2871C1.81543 94.7435 1.60547 94.0078 1.60547 93.0801V91.791C1.60547 90.8665 1.82031 90.1357 2.25 89.5986C2.68294 89.0615 3.27214 88.793 4.01758 88.793C4.70443 88.793 5.23503 88.9997 5.60938 89.4131C5.98698 89.8232 6.19206 90.4108 6.22461 91.1758H5.32129C5.28223 90.5964 5.16016 90.1829 4.95508 89.9355C4.75 89.6882 4.4375 89.5645 4.01758 89.5645C3.53255 89.5645 3.15983 89.7549 2.89941 90.1357C2.639 90.5133 2.50879 91.0684 2.50879 91.8008V93.1045C2.50879 93.8239 2.62923 94.3757 2.87012 94.7598C3.11426 95.1439 3.46908 95.3359 3.93457 95.3359C4.40007 95.3359 4.73535 95.2204 4.94043 94.9893C5.14551 94.7581 5.27246 94.3431 5.32129 93.7441H6.22461ZM10.1737 95.5361C9.88721 95.9105 9.46892 96.0977 8.91879 96.0977C8.44027 96.0977 8.07895 95.9333 7.8348 95.6045C7.59066 95.2725 7.46697 94.7907 7.46371 94.1592V90.7168H8.32309V94.0957C8.32309 94.9193 8.57048 95.3311 9.06527 95.3311C9.58936 95.3311 9.95069 95.0967 10.1493 94.6279V90.7168H11.0135V96H10.1932L10.1737 95.5361ZM15.0407 94.6475C15.0407 94.4619 14.9707 94.3024 14.8307 94.1689C14.6908 94.0355 14.4206 93.8792 14.0202 93.7002C13.5547 93.5081 13.2259 93.3438 13.0339 93.207C12.8451 93.0703 12.7035 92.9157 12.6091 92.7432C12.5147 92.5674 12.4675 92.359 12.4675 92.1182C12.4675 91.6885 12.6237 91.332 12.9362 91.0488C13.252 90.7624 13.654 90.6191 14.1423 90.6191C14.6566 90.6191 15.07 90.7689 15.3825 91.0684C15.695 91.3678 15.8512 91.752 15.8512 92.2207H14.9919C14.9919 91.9831 14.9121 91.7812 14.7526 91.6152C14.5931 91.446 14.3897 91.3613 14.1423 91.3613C13.8884 91.3613 13.6882 91.4281 13.5417 91.5615C13.3985 91.6917 13.3268 91.8675 13.3268 92.0889C13.3268 92.2646 13.3789 92.4062 13.4831 92.5137C13.5905 92.6211 13.846 92.7627 14.2497 92.9385C14.891 93.1891 15.3272 93.4349 15.5583 93.6758C15.7894 93.9134 15.905 94.2161 15.905 94.584C15.905 95.043 15.7471 95.4108 15.4313 95.6875C15.1156 95.9609 14.6924 96.0977 14.1618 96.0977C13.6117 96.0977 13.1657 95.9398 12.8239 95.624C12.4821 95.3083 12.3112 94.9079 12.3112 94.4229H13.1804C13.1901 94.7158 13.2796 94.9453 13.4489 95.1113C13.6182 95.2773 13.8558 95.3604 14.1618 95.3604C14.4483 95.3604 14.6664 95.2969 14.8161 95.1699C14.9658 95.0397 15.0407 94.8656 15.0407 94.6475ZM18.3257 89.4375V90.7168H19.1216V91.415H18.3257V94.6914C18.3257 94.8997 18.3599 95.0576 18.4282 95.165C18.4966 95.2725 18.6138 95.3262 18.7798 95.3262C18.8937 95.3262 19.0093 95.3066 19.1265 95.2676L19.1167 96C18.9214 96.0651 18.7212 96.0977 18.5161 96.0977C18.1743 96.0977 17.9139 95.9756 17.7349 95.7314C17.5558 95.4873 17.4663 95.1423 17.4663 94.6963V91.415H16.6607V90.7168H17.4663V89.4375H18.3257ZM20.0336 93.1143C20.0336 92.346 20.2191 91.7389 20.5902 91.293C20.9645 90.8438 21.4577 90.6191 22.0697 90.6191C22.6817 90.6191 23.1732 90.8372 23.5443 91.2734C23.9186 91.7096 24.1107 92.3037 24.1205 93.0557V93.6123C24.1205 94.3773 23.9349 94.9827 23.5638 95.4287C23.1927 95.8747 22.6979 96.0977 22.0795 96.0977C21.4675 96.0977 20.9759 95.8812 20.6048 95.4482C20.237 95.0153 20.0466 94.4294 20.0336 93.6904V93.1143ZM20.8978 93.6123C20.8978 94.1559 21.0036 94.584 21.2152 94.8965C21.43 95.2057 21.7181 95.3604 22.0795 95.3604C22.8412 95.3604 23.2334 94.8102 23.2562 93.71V93.1143C23.2562 92.5739 23.1488 92.1475 22.9339 91.835C22.7191 91.5192 22.431 91.3613 22.0697 91.3613C21.7149 91.3613 21.43 91.5192 21.2152 91.835C21.0036 92.1475 20.8978 92.5723 20.8978 93.1094V93.6123ZM26.2092 90.7168L26.2287 91.2051C26.551 90.8145 26.9758 90.6191 27.5031 90.6191C28.0923 90.6191 28.5041 90.8747 28.7385 91.3857C29.0705 90.8747 29.5327 90.6191 30.1252 90.6191C31.0985 90.6191 31.5965 91.2262 31.6193 92.4404V96H30.76V92.5234C30.76 92.1393 30.6916 91.8545 30.5549 91.6689C30.4182 91.4801 30.187 91.3857 29.8615 91.3857C29.6011 91.3857 29.3895 91.4867 29.2268 91.6885C29.064 91.8903 28.9696 92.1475 28.9436 92.46V96H28.0744V92.4844C28.0646 91.752 27.7668 91.3857 27.1809 91.3857C26.7447 91.3857 26.437 91.6038 26.258 92.04V96H25.3986V90.7168H26.2092ZM34.9727 96.0977C34.3151 96.0977 33.8106 95.9023 33.459 95.5117C33.1075 95.1178 32.9284 94.5417 32.9219 93.7832V93.1436C32.9219 92.3558 33.0928 91.7389 33.4346 91.293C33.7797 90.8438 34.2598 90.6191 34.875 90.6191C35.4935 90.6191 35.9558 90.8161 36.2618 91.21C36.5677 91.6038 36.724 92.2174 36.7305 93.0508V93.6172H33.7813V93.7393C33.7813 94.3057 33.8871 94.7174 34.0987 94.9746C34.3135 95.2318 34.6211 95.3604 35.0215 95.3604C35.2754 95.3604 35.4984 95.3132 35.6905 95.2188C35.8858 95.1211 36.0681 94.9681 36.2373 94.7598L36.6866 95.3066C36.3122 95.834 35.7409 96.0977 34.9727 96.0977ZM34.875 91.3613C34.517 91.3613 34.2517 91.485 34.0791 91.7324C33.9066 91.9766 33.809 92.3574 33.7862 92.875H35.8662V92.7578C35.8435 92.2565 35.7523 91.8984 35.5928 91.6836C35.4366 91.4688 35.1973 91.3613 34.875 91.3613ZM40.1132 91.5273C39.9927 91.5046 39.8625 91.4932 39.7225 91.4932C39.2798 91.4932 38.9706 91.7357 38.7948 92.2207V96H37.9305V90.7168H38.7704L38.785 91.2539C39.0162 90.8307 39.3433 90.6191 39.7665 90.6191C39.9032 90.6191 40.0171 90.6419 40.1083 90.6875L40.1132 91.5273ZM43.7058 94.6475C43.7058 94.4619 43.6358 94.3024 43.4958 94.1689C43.3558 94.0355 43.0857 93.8792 42.6853 93.7002C42.2198 93.5081 41.891 93.3438 41.6989 93.207C41.5101 93.0703 41.3685 92.9157 41.2741 92.7432C41.1797 92.5674 41.1325 92.359 41.1325 92.1182C41.1325 91.6885 41.2888 91.332 41.6013 91.0488C41.917 90.7624 42.3191 90.6191 42.8073 90.6191C43.3217 90.6191 43.7351 90.7689 44.0476 91.0684C44.3601 91.3678 44.5163 91.752 44.5163 92.2207H43.657C43.657 91.9831 43.5772 91.7812 43.4177 91.6152C43.2582 91.446 43.0547 91.3613 42.8073 91.3613C42.5534 91.3613 42.3532 91.4281 42.2068 91.5615C42.0635 91.6917 41.9919 91.8675 41.9919 92.0889C41.9919 92.2646 42.044 92.4062 42.1482 92.5137C42.2556 92.6211 42.5111 92.7627 42.9148 92.9385C43.556 93.1891 43.9922 93.4349 44.2234 93.6758C44.4545 93.9134 44.57 94.2161 44.57 94.584C44.57 95.043 44.4122 95.4108 44.0964 95.6875C43.7806 95.9609 43.3575 96.0977 42.8269 96.0977C42.2767 96.0977 41.8308 95.9398 41.489 95.624C41.1472 95.3083 40.9763 94.9079 40.9763 94.4229H41.8454C41.8552 94.7158 41.9447 94.9453 42.114 95.1113C42.2833 95.2773 42.5209 95.3604 42.8269 95.3604C43.1133 95.3604 43.3314 95.2969 43.4812 95.1699C43.6309 95.0397 43.7058 94.8656 43.7058 94.6475Z" fill="#5B5A5A" fill-opacity="0.8"/>
<path d="M1 24.7886H55" stroke="#5B5A5A" stroke-opacity="0.2" stroke-linecap="round"/>
<defs>
<clipPath id="clip0">
<rect width="20" height="20" fill="white" transform="translate(1.17175)"/>
</clipPath>
</defs>
</svg>
