<svg width="54" height="99" viewBox="0 0 54 99" fill="none" xmlns="http://www.w3.org/2000/svg">
<g clip-path="url(#clip0)">
<path d="M28.2609 16.599C28.4058 16.599 28.5314 16.5411 28.6377 16.4348C28.744 16.3285 28.8019 16.2029 28.8019 16.058C28.8019 15.9034 28.744 15.7681 28.6377 15.6618C28.5314 15.5555 28.4058 15.4976 28.2609 15.4976H27.1594C27.0048 15.4976 26.8696 15.5555 26.7633 15.6618C26.657 15.7681 26.599 15.9034 26.599 16.058C26.599 16.2029 26.657 16.3285 26.7633 16.4348C26.8696 16.5411 27.0048 16.599 27.1594 16.599H28.2609ZM24.9275 16.599C25.0821 16.599 25.2174 16.5411 25.3237 16.4348C25.43 16.3285 25.4879 16.2029 25.4879 16.058C25.4879 15.9034 25.43 15.7681 25.3237 15.6618C25.2174 15.5555 25.0821 15.4976 24.9275 15.4976H23.8261C23.6715 15.4976 23.5362 15.5555 23.43 15.6618C23.3237 15.7681 23.2657 15.9034 23.2657 16.058C23.2657 16.2029 23.3237 16.3285 23.43 16.4348C23.5362 16.5411 23.6715 16.599 23.8261 16.599H24.9275ZM21.6232 16.599C21.7681 16.599 21.8937 16.5411 22 16.4348C22.1063 16.3285 22.1643 16.2029 22.1643 16.058C22.1643 15.9034 22.1063 15.7681 22 15.6618C21.8937 15.5555 21.7681 15.4976 21.6232 15.4976H20.5024C20.3575 15.4976 20.2319 15.5555 20.1256 15.6618C20.0193 15.7681 19.9614 15.9034 19.9614 16.058C19.9614 16.2029 20.0193 16.3285 20.1256 16.4348C20.2319 16.5411 20.3575 16.599 20.5024 16.599H21.6232ZM18.2995 16.599C18.4541 16.599 18.5894 16.5411 18.6957 16.4348C18.8019 16.3285 18.8599 16.2029 18.8599 16.058C18.8599 15.9034 18.8019 15.7681 18.6957 15.6618C18.5894 15.5555 18.4541 15.4976 18.2995 15.4976H17.1981C17.0435 15.4976 16.9082 15.5555 16.8019 15.6618C16.6957 15.7681 16.6377 15.9034 16.6377 16.058C16.6377 16.2029 16.6957 16.3285 16.8019 16.4348C16.9082 16.5411 17.0435 16.599 17.1981 16.599H18.2995ZM14.9662 16.599C15.1208 16.599 15.256 16.5411 15.3623 16.4348C15.4686 16.3285 15.5266 16.2029 15.5266 16.058C15.5266 15.9034 15.4686 15.7681 15.3623 15.6618C15.256 15.5555 15.1208 15.4976 14.9662 15.4976H13.8647C13.7198 15.4976 13.5942 15.5555 13.4879 15.6618C13.3816 15.7681 13.3237 15.9034 13.3237 16.058C13.3237 16.2029 13.3816 16.3285 13.4879 16.4348C13.5942 16.5411 13.7198 16.599 13.8647 16.599H14.9662ZM28.2609 14.3961C28.4058 14.3961 28.5314 14.3382 28.6377 14.2319C28.744 14.1256 28.8019 13.9903 28.8019 13.8357C28.8019 13.6908 28.744 13.5652 28.6377 13.4589C28.5314 13.3527 28.4058 13.2947 28.2609 13.2947H27.1594C27.0048 13.2947 26.8696 13.3527 26.7633 13.4589C26.657 13.5652 26.599 13.6908 26.599 13.8357C26.599 13.9903 26.657 14.1256 26.7633 14.2319C26.8696 14.3382 27.0048 14.3961 27.1594 14.3961H28.2609ZM24.9275 14.3961C25.0821 14.3961 25.2174 14.3382 25.3237 14.2319C25.43 14.1256 25.4879 13.9903 25.4879 13.8357C25.4879 13.6908 25.43 13.5652 25.3237 13.4589C25.2174 13.3527 25.0821 13.2947 24.9275 13.2947H23.8261C23.6715 13.2947 23.5362 13.3527 23.43 13.4589C23.3237 13.5652 23.2657 13.6908 23.2657 13.8357C23.2657 13.9903 23.3237 14.1256 23.43 14.2319C23.5362 14.3382 23.6715 14.3961 23.8261 14.3961H24.9275ZM21.6232 14.3961C21.7681 14.3961 21.8937 14.3382 22 14.2319C22.1063 14.1256 22.1643 13.9903 22.1643 13.8357C22.1643 13.6908 22.1063 13.5652 22 13.4589C21.8937 13.3527 21.7681 13.2947 21.6232 13.2947H20.5024C20.3575 13.2947 20.2319 13.3527 20.1256 13.4589C20.0193 13.5652 19.9614 13.6908 19.9614 13.8357C19.9614 13.9903 20.0193 14.1256 20.1256 14.2319C20.2319 14.3382 20.3575 14.3961 20.5024 14.3961H21.6232ZM18.2995 14.3961C18.4541 14.3961 18.5894 14.3382 18.6957 14.2319C18.8019 14.1256 18.8599 13.9903 18.8599 13.8357C18.8599 13.6908 18.8019 13.5652 18.6957 13.4589C18.5894 13.3527 18.4541 13.2947 18.2995 13.2947H17.1981C17.0435 13.2947 16.9082 13.3527 16.8019 13.4589C16.6957 13.5652 16.6377 13.6908 16.6377 13.8357C16.6377 13.9903 16.6957 14.1256 16.8019 14.2319C16.9082 14.3382 17.0435 14.3961 17.1981 14.3961H18.2995ZM14.9662 14.3961C15.1208 14.3961 15.256 14.3382 15.3623 14.2319C15.4686 14.1256 15.5266 13.9903 15.5266 13.8357C15.5266 13.6908 15.4686 13.5652 15.3623 13.4589C15.256 13.3527 15.1208 13.2947 14.9662 13.2947H13.8647C13.7198 13.2947 13.5942 13.3527 13.4879 13.4589C13.3816 13.5652 13.3237 13.6908 13.3237 13.8357C13.3237 13.9903 13.3816 14.1256 13.4879 14.2319C13.5942 14.3382 13.7198 14.3961 13.8647 14.3961H14.9662ZM28.2609 12.1836C28.4058 12.1836 28.5314 12.1256 28.6377 12.0193C28.744 11.913 28.8019 11.7778 28.8019 11.6232C28.8019 11.4686 28.744 11.3333 28.6377 11.227C28.5314 11.1208 28.4058 11.0628 28.2609 11.0628H27.1594C27.0048 11.0628 26.8696 11.1208 26.7633 11.227C26.657 11.3333 26.599 11.4686 26.599 11.6232C26.599 11.7778 26.657 11.913 26.7633 12.0193C26.8696 12.1256 27.0048 12.1836 27.1594 12.1836H28.2609ZM24.9275 12.1836C25.0821 12.1836 25.2174 12.1256 25.3237 12.0193C25.43 11.913 25.4879 11.7778 25.4879 11.6232C25.4879 11.4686 25.43 11.3333 25.3237 11.227C25.2174 11.1208 25.0821 11.0628 24.9275 11.0628H23.8261C23.6715 11.0628 23.5362 11.1208 23.43 11.227C23.3237 11.3333 23.2657 11.4686 23.2657 11.6232C23.2657 11.7778 23.3237 11.913 23.43 12.0193C23.5362 12.1256 23.6715 12.1836 23.8261 12.1836H24.9275ZM21.6232 12.1836C21.7681 12.1836 21.8937 12.1256 22 12.0193C22.1063 11.913 22.1643 11.7778 22.1643 11.6232C22.1643 11.4686 22.1063 11.3333 22 11.227C21.8937 11.1208 21.7681 11.0628 21.6232 11.0628H20.5024C20.3575 11.0628 20.2319 11.1208 20.1256 11.227C20.0193 11.3333 19.9614 11.4686 19.9614 11.6232C19.9614 11.7778 20.0193 11.913 20.1256 12.0193C20.2319 12.1256 20.3575 12.1836 20.5024 12.1836H21.6232ZM18.2995 12.1836C18.4541 12.1836 18.5894 12.1256 18.6957 12.0193C18.8019 11.913 18.8599 11.7778 18.8599 11.6232C18.8599 11.4686 18.8019 11.3333 18.6957 11.227C18.5894 11.1208 18.4541 11.0628 18.2995 11.0628H17.1981C17.0435 11.0628 16.9082 11.1208 16.8019 11.227C16.6957 11.3333 16.6377 11.4686 16.6377 11.6232C16.6377 11.7778 16.6957 11.913 16.8019 12.0193C16.9082 12.1256 17.0435 12.1836 17.1981 12.1836H18.2995ZM14.9662 12.1836C15.1208 12.1836 15.256 12.1256 15.3623 12.0193C15.4686 11.913 15.5266 11.7778 15.5266 11.6232C15.5266 11.4686 15.4686 11.3333 15.3623 11.227C15.256 11.1208 15.1208 11.0628 14.9662 11.0628H13.8647C13.7198 11.0628 13.5942 11.1208 13.4879 11.227C13.3816 11.3333 13.3237 11.4686 13.3237 11.6232C13.3237 11.7778 13.3816 11.913 13.4879 12.0193C13.5942 12.1256 13.7198 12.1836 13.8647 12.1836H14.9662ZM28.2609 9.96135C28.4058 9.96135 28.5314 9.90338 28.6377 9.7971C28.744 9.69082 28.8019 9.56521 28.8019 9.42029C28.8019 9.2657 28.744 9.13043 28.6377 9.02415C28.5314 8.91787 28.4058 8.8599 28.2609 8.8599H27.1594C27.0048 8.8599 26.8696 8.91787 26.7633 9.02415C26.657 9.13043 26.599 9.2657 26.599 9.42029C26.599 9.56521 26.657 9.69082 26.7633 9.7971C26.8696 9.90338 27.0048 9.96135 27.1594 9.96135H28.2609ZM24.9275 9.96135C25.0821 9.96135 25.2174 9.90338 25.3237 9.7971C25.43 9.69082 25.4879 9.56521 25.4879 9.42029C25.4879 9.2657 25.43 9.13043 25.3237 9.02415C25.2174 8.91787 25.0821 8.8599 24.9275 8.8599H23.8261C23.6715 8.8599 23.5362 8.91787 23.43 9.02415C23.3237 9.13043 23.2657 9.2657 23.2657 9.42029C23.2657 9.56521 23.3237 9.69082 23.43 9.7971C23.5362 9.90338 23.6715 9.96135 23.8261 9.96135H24.9275ZM21.6232 9.96135C21.7681 9.96135 21.8937 9.90338 22 9.7971C22.1063 9.69082 22.1643 9.56521 22.1643 9.42029C22.1643 9.2657 22.1063 9.13043 22 9.02415C21.8937 8.91787 21.7681 8.8599 21.6232 8.8599H20.5024C20.3575 8.8599 20.2319 8.91787 20.1256 9.02415C20.0193 9.13043 19.9614 9.2657 19.9614 9.42029C19.9614 9.56521 20.0193 9.69082 20.1256 9.7971C20.2319 9.90338 20.3575 9.96135 20.5024 9.96135H21.6232ZM18.2995 9.96135C18.4541 9.96135 18.5894 9.90338 18.6957 9.7971C18.8019 9.69082 18.8599 9.56521 18.8599 9.42029C18.8599 9.2657 18.8019 9.13043 18.6957 9.02415C18.5894 8.91787 18.4541 8.8599 18.2995 8.8599H17.1981C17.0435 8.8599 16.9082 8.91787 16.8019 9.02415C16.6957 9.13043 16.6377 9.2657 16.6377 9.42029C16.6377 9.56521 16.6957 9.69082 16.8019 9.7971C16.9082 9.90338 17.0435 9.96135 17.1981 9.96135H18.2995ZM30.4638 18.8212H11.6618C11.5072 18.8212 11.372 18.7633 11.2657 18.657C11.1594 18.5507 11.1014 18.4155 11.1014 18.2609V6.657H31.0242V18.2609C31.0242 18.4155 30.9662 18.5507 30.8599 18.657C30.7536 18.7633 30.6184 18.8212 30.4638 18.8212ZM11.6618 2.22222H14.4251V3.88406C14.4251 4.02898 14.4831 4.15459 14.5894 4.26087C14.6957 4.36715 14.8213 4.42512 14.9662 4.42512C15.1208 4.42512 15.256 4.36715 15.3623 4.26087C15.4686 4.15459 15.5266 4.02898 15.5266 3.88406V2.22222H26.5894V3.88406C26.5894 4.02898 26.6473 4.15459 26.7536 4.26087C26.8599 4.36715 26.9952 4.42512 27.1498 4.42512C27.2947 4.42512 27.4203 4.36715 27.5266 4.26087C27.6328 4.15459 27.6908 4.02898 27.6908 3.88406V2.22222H30.4541C30.6087 2.22222 30.744 2.28019 30.8502 2.38647C30.9565 2.49275 31.0145 2.61836 31.0145 2.76328V5.52657H11.1014V2.76328C11.1014 2.61836 11.1594 2.49275 11.2657 2.38647C11.372 2.28019 11.5072 2.22222 11.6618 2.22222ZM30.4638 1.12077H27.7005V0.560386C27.7005 0.405797 27.6425 0.270531 27.5362 0.164251C27.43 0.057971 27.3043 0 27.1594 0C27.0048 0 26.8696 0.057971 26.7633 0.164251C26.657 0.270531 26.599 0.405797 26.599 0.560386V1.12077H15.5266V0.560386C15.5266 0.405797 15.4686 0.270531 15.3623 0.164251C15.256 0.057971 15.1208 0 14.9662 0C14.8213 0 14.6957 0.057971 14.5894 0.164251C14.4831 0.270531 14.4251 0.405797 14.4251 0.560386V1.12077H11.6618C11.1981 1.12077 10.8116 1.28502 10.4831 1.60386C10.1546 1.93237 10 2.30918 10 2.76328V18.2512C10 18.715 10.1643 19.1014 10.4831 19.4299C10.8019 19.7584 11.1981 19.913 11.6618 19.913H30.4638C30.9275 19.913 31.314 19.7488 31.6425 19.4299C31.971 19.1014 32.1256 18.715 32.1256 18.2512V2.76328C32.1256 2.31884 31.9614 1.93237 31.6425 1.60386C31.314 1.28502 30.9275 1.12077 30.4638 1.12077Z" fill="#5B5A5A" fill-opacity="0.8"/>
</g>
<path d="M14.0117 45H11.2383V34.1406L8.5332 35.1855V32.8809L13.7188 30.7617H14.0117V45ZM26.4238 45H18.0449V43.0469L21.8926 38.1543C22.3809 37.4772 22.7389 36.8848 22.9668 36.377C23.2012 35.8626 23.3184 35.3711 23.3184 34.9023C23.3184 34.2708 23.2077 33.776 22.9863 33.418C22.7715 33.0599 22.459 32.8809 22.0488 32.8809C21.5996 32.8809 21.2415 33.0892 20.9746 33.5059C20.7142 33.9225 20.584 34.5085 20.584 35.2637H17.8105C17.8105 34.3913 17.9896 33.5938 18.3477 32.8711C18.7122 32.1484 19.2201 31.5885 19.8711 31.1914C20.5286 30.7878 21.2708 30.5859 22.0977 30.5859C23.3672 30.5859 24.3503 30.9375 25.0469 31.6406C25.75 32.3372 26.1016 33.3301 26.1016 34.6191C26.1016 35.4199 25.9062 36.2337 25.5156 37.0605C25.1315 37.8809 24.4316 38.8932 23.416 40.0977L21.5898 42.7051H26.4238V45ZM36.4238 39.1211C36.4238 41.0872 36.0658 42.5911 35.3496 43.6328C34.64 44.6745 33.6243 45.1953 32.3027 45.1953C30.9941 45.1953 29.9818 44.6908 29.2656 43.6816C28.556 42.666 28.1882 41.2142 28.1621 39.3262V36.6406C28.1621 34.681 28.5169 33.1836 29.2266 32.1484C29.9362 31.1068 30.9551 30.5859 32.2832 30.5859C33.6113 30.5859 34.6302 31.1003 35.3398 32.1289C36.0495 33.1576 36.4108 34.6257 36.4238 36.5332V39.1211ZM33.6504 36.2402C33.6504 35.1204 33.5397 34.2806 33.3184 33.7207C33.097 33.1608 32.752 32.8809 32.2832 32.8809C31.4043 32.8809 30.9486 33.9062 30.916 35.957V39.502C30.916 40.6478 31.0267 41.5007 31.248 42.0605C31.4759 42.6204 31.8275 42.9004 32.3027 42.9004C32.752 42.9004 33.084 42.64 33.2988 42.1191C33.5202 41.5918 33.6374 40.7878 33.6504 39.707V36.2402ZM43.4062 37.0312H46.1699V39.5996H43.4062V43.5742H40.7891V39.5996H37.9766V37.0312H40.7891V33.2227H43.4062V37.0312Z" fill="#5B5A5A" fill-opacity="0.6"/>
<path d="M12.6172 66.46L14.0723 62.8906H15.083L13.0615 67.3486V70H12.168V67.3486L10.1465 62.8906H11.1621L12.6172 66.46ZM17.9383 70.0977C17.2808 70.0977 16.7762 69.9023 16.4246 69.5117C16.0731 69.1178 15.894 68.5417 15.8875 67.7832V67.1436C15.8875 66.3558 16.0584 65.7389 16.4002 65.293C16.7453 64.8438 17.2254 64.6191 17.8407 64.6191C18.4592 64.6191 18.9214 64.8161 19.2274 65.21C19.5334 65.6038 19.6896 66.2174 19.6961 67.0508V67.6172H16.7469V67.7393C16.7469 68.3057 16.8527 68.7174 17.0643 68.9746C17.2791 69.2318 17.5868 69.3604 17.9871 69.3604C18.2411 69.3604 18.464 69.3132 18.6561 69.2188C18.8514 69.1211 19.0337 68.9681 19.203 68.7598L19.6522 69.3066C19.2778 69.834 18.7065 70.0977 17.9383 70.0977ZM17.8407 65.3613C17.4826 65.3613 17.2173 65.485 17.0448 65.7324C16.8722 65.9766 16.7746 66.3574 16.7518 66.875H18.8319V66.7578C18.8091 66.2565 18.7179 65.8984 18.5584 65.6836C18.4022 65.4688 18.1629 65.3613 17.8407 65.3613ZM23.6159 70C23.5638 69.8861 23.5264 69.694 23.5036 69.4238C23.1976 69.873 22.807 70.0977 22.3317 70.0977C21.8532 70.0977 21.4789 69.9642 21.2087 69.6973C20.9417 69.4271 20.8083 69.0479 20.8083 68.5596C20.8083 68.0225 20.9906 67.596 21.3552 67.2803C21.7197 66.9645 22.2194 66.8034 22.8542 66.7969H23.4889V66.2354C23.4889 65.9196 23.419 65.695 23.279 65.5615C23.139 65.4281 22.9258 65.3613 22.6393 65.3613C22.3789 65.3613 22.1673 65.4395 22.0046 65.5957C21.8418 65.7487 21.7604 65.944 21.7604 66.1816H20.8962C20.8962 65.9115 20.9759 65.6543 21.1354 65.4102C21.2949 65.1628 21.5098 64.9691 21.78 64.8291C22.0501 64.6891 22.3512 64.6191 22.6833 64.6191C23.2236 64.6191 23.6338 64.7542 23.9137 65.0244C24.197 65.2913 24.3418 65.682 24.3483 66.1963V68.8623C24.3516 69.2692 24.4069 69.6224 24.5143 69.9219V70H23.6159ZM22.4636 69.3115C22.6751 69.3115 22.877 69.2529 23.069 69.1357C23.2611 69.0186 23.4011 68.8721 23.4889 68.6963V67.4365H23.0007C22.5905 67.443 22.2666 67.5358 22.029 67.7148C21.7914 67.8906 21.6725 68.138 21.6725 68.457C21.6725 68.7565 21.7328 68.9746 21.8532 69.1113C21.9736 69.2448 22.1771 69.3115 22.4636 69.3115ZM28.0337 65.5273C27.9133 65.5046 27.7831 65.4932 27.6431 65.4932C27.2004 65.4932 26.8911 65.7357 26.7154 66.2207V70H25.8511V64.7168H26.6909L26.7056 65.2539C26.9367 64.8307 27.2639 64.6191 27.687 64.6191C27.8237 64.6191 27.9377 64.6419 28.0288 64.6875L28.0337 65.5273ZM31.6263 68.6475C31.6263 68.4619 31.5563 68.3024 31.4164 68.1689C31.2764 68.0355 31.0062 67.8792 30.6058 67.7002C30.1403 67.5081 29.8115 67.3438 29.6195 67.207C29.4307 67.0703 29.2891 66.9157 29.1947 66.7432C29.1003 66.5674 29.0531 66.359 29.0531 66.1182C29.0531 65.6885 29.2093 65.332 29.5218 65.0488C29.8376 64.7624 30.2396 64.6191 30.7279 64.6191C31.2422 64.6191 31.6556 64.7689 31.9681 65.0684C32.2806 65.3678 32.4369 65.752 32.4369 66.2207H31.5775C31.5775 65.9831 31.4977 65.7812 31.3382 65.6152C31.1787 65.446 30.9753 65.3613 30.7279 65.3613C30.474 65.3613 30.2738 65.4281 30.1273 65.5615C29.9841 65.6917 29.9125 65.8675 29.9125 66.0889C29.9125 66.2646 29.9645 66.4062 30.0687 66.5137C30.1761 66.6211 30.4317 66.7627 30.8353 66.9385C31.4766 67.1891 31.9128 67.4349 32.1439 67.6758C32.375 67.9134 32.4906 68.2161 32.4906 68.584C32.4906 69.043 32.3327 69.4108 32.017 69.6875C31.7012 69.9609 31.278 70.0977 30.7474 70.0977C30.1973 70.0977 29.7513 69.9398 29.4095 69.624C29.0677 69.3083 28.8968 68.9079 28.8968 68.4229H29.766C29.7757 68.7158 29.8653 68.9453 30.0345 69.1113C30.2038 69.2773 30.4414 69.3604 30.7474 69.3604C31.0339 69.3604 31.252 69.2969 31.4017 69.1699C31.5515 69.0397 31.6263 68.8656 31.6263 68.6475ZM37.1661 70H36.3018V64.7168H37.1661V70ZM37.2344 63.3154C37.2344 63.4619 37.1937 63.584 37.1123 63.6816C37.031 63.7793 36.9073 63.8281 36.7412 63.8281C36.5785 63.8281 36.4564 63.7793 36.375 63.6816C36.2937 63.584 36.253 63.4619 36.253 63.3154C36.253 63.1689 36.2937 63.0452 36.375 62.9443C36.4564 62.8434 36.5785 62.793 36.7412 62.793C36.904 62.793 37.0261 62.8451 37.1075 62.9492C37.1921 63.0501 37.2344 63.1722 37.2344 63.3154ZM39.5038 64.7168L39.5282 65.2881C39.8635 64.8421 40.2916 64.6191 40.8124 64.6191C41.7466 64.6191 42.2203 65.2425 42.2333 66.4893V70H41.3739V66.5283C41.3739 66.1149 41.3039 65.8219 41.1639 65.6494C41.0272 65.4736 40.8205 65.3857 40.5438 65.3857C40.329 65.3857 40.1353 65.4574 39.9628 65.6006C39.7935 65.7438 39.6568 65.931 39.5526 66.1621V70H38.6884V64.7168H39.5038ZM10.7666 82V74.8906H12.793C13.4408 74.8906 13.9274 75.0485 14.2529 75.3643C14.5817 75.68 14.7461 76.1536 14.7461 76.7852C14.7461 77.1172 14.6631 77.4102 14.4971 77.6641C14.3311 77.918 14.1064 78.1149 13.8232 78.2549C14.1488 78.3525 14.4059 78.5527 14.5947 78.8555C14.7868 79.1582 14.8828 79.5228 14.8828 79.9492C14.8828 80.5872 14.707 81.0885 14.3555 81.4531C14.0072 81.8177 13.5091 82 12.8613 82H10.7666ZM11.6602 78.6748V81.2334H12.8809C13.2194 81.2334 13.488 81.1227 13.6865 80.9014C13.8851 80.6768 13.9844 80.3626 13.9844 79.959C13.9844 79.1029 13.623 78.6748 12.9004 78.6748H11.6602ZM11.6602 77.9229H12.8076C13.1169 77.9229 13.3659 77.8187 13.5547 77.6104C13.7467 77.402 13.8428 77.1253 13.8428 76.7803C13.8428 76.3896 13.7565 76.1064 13.584 75.9307C13.4115 75.7516 13.1478 75.6621 12.793 75.6621H11.6602V77.9229ZM18.9588 81.5361C18.6724 81.9105 18.2541 82.0977 17.7039 82.0977C17.2254 82.0977 16.8641 81.9333 16.62 81.6045C16.3758 81.2725 16.2521 80.7907 16.2489 80.1592V76.7168H17.1082V80.0957C17.1082 80.9193 17.3556 81.3311 17.8504 81.3311C18.3745 81.3311 18.7358 81.0967 18.9344 80.6279V76.7168H19.7987V82H18.9784L18.9588 81.5361ZM23.8259 80.6475C23.8259 80.4619 23.7559 80.3024 23.6159 80.1689C23.4759 80.0355 23.2057 79.8792 22.8054 79.7002C22.3399 79.5081 22.0111 79.3438 21.819 79.207C21.6302 79.0703 21.4886 78.9157 21.3942 78.7432C21.2998 78.5674 21.2526 78.359 21.2526 78.1182C21.2526 77.6885 21.4089 77.332 21.7214 77.0488C22.0371 76.7624 22.4391 76.6191 22.9274 76.6191C23.4417 76.6191 23.8552 76.7689 24.1677 77.0684C24.4802 77.3678 24.6364 77.752 24.6364 78.2207H23.777C23.777 77.9831 23.6973 77.7812 23.5378 77.6152C23.3783 77.446 23.1748 77.3613 22.9274 77.3613C22.6735 77.3613 22.4733 77.4281 22.3268 77.5615C22.1836 77.6917 22.112 77.8675 22.112 78.0889C22.112 78.2646 22.1641 78.4062 22.2682 78.5137C22.3757 78.6211 22.6312 78.7627 23.0348 78.9385C23.6761 79.1891 24.1123 79.4349 24.3434 79.6758C24.5746 79.9134 24.6901 80.2161 24.6901 80.584C24.6901 81.043 24.5322 81.4108 24.2165 81.6875C23.9007 81.9609 23.4776 82.0977 22.947 82.0977C22.3968 82.0977 21.9509 81.9398 21.6091 81.624C21.2673 81.3083 21.0964 80.9079 21.0964 80.4229H21.9655C21.9753 80.7158 22.0648 80.9453 22.2341 81.1113C22.4033 81.2773 22.641 81.3604 22.947 81.3604C23.2334 81.3604 23.4515 81.2969 23.6012 81.1699C23.751 81.0397 23.8259 80.8656 23.8259 80.6475ZM26.9107 82H26.0464V76.7168H26.9107V82ZM26.979 75.3154C26.979 75.4619 26.9383 75.584 26.857 75.6816C26.7756 75.7793 26.6519 75.8281 26.4859 75.8281C26.3231 75.8281 26.201 75.7793 26.1196 75.6816C26.0383 75.584 25.9976 75.4619 25.9976 75.3154C25.9976 75.1689 26.0383 75.0452 26.1196 74.9443C26.201 74.8434 26.3231 74.793 26.4859 74.793C26.6486 74.793 26.7707 74.8451 26.8521 74.9492C26.9367 75.0501 26.979 75.1722 26.979 75.3154ZM29.2484 76.7168L29.2728 77.2881C29.6081 76.8421 30.0362 76.6191 30.557 76.6191C31.4912 76.6191 31.9649 77.2425 31.9779 78.4893V82H31.1185V78.5283C31.1185 78.1149 31.0485 77.8219 30.9086 77.6494C30.7718 77.4736 30.5651 77.3857 30.2884 77.3857C30.0736 77.3857 29.8799 77.4574 29.7074 77.6006C29.5381 77.7438 29.4014 77.931 29.2972 78.1621V82H28.433V76.7168H29.2484ZM35.3264 82.0977C34.6688 82.0977 34.1643 81.9023 33.8127 81.5117C33.4611 81.1178 33.2821 80.5417 33.2756 79.7832V79.1436C33.2756 78.3558 33.4465 77.7389 33.7883 77.293C34.1333 76.8438 34.6135 76.6191 35.2287 76.6191C35.8472 76.6191 36.3094 76.8161 36.6154 77.21C36.9214 77.6038 37.0777 78.2174 37.0842 79.0508V79.6172H34.135V79.7393C34.135 80.3057 34.2408 80.7174 34.4523 80.9746C34.6672 81.2318 34.9748 81.3604 35.3752 81.3604C35.6291 81.3604 35.8521 81.3132 36.0441 81.2188C36.2395 81.1211 36.4217 80.9681 36.591 80.7598L37.0402 81.3066C36.6659 81.834 36.0946 82.0977 35.3264 82.0977ZM35.2287 77.3613C34.8706 77.3613 34.6053 77.485 34.4328 77.7324C34.2603 77.9766 34.1626 78.3574 34.1398 78.875H36.2199V78.7578C36.1971 78.2565 36.106 77.8984 35.9465 77.6836C35.7902 77.4688 35.551 77.3613 35.2287 77.3613ZM40.8526 80.6475C40.8526 80.4619 40.7826 80.3024 40.6426 80.1689C40.5026 80.0355 40.2325 79.8792 39.8321 79.7002C39.3666 79.5081 39.0378 79.3438 38.8457 79.207C38.6569 79.0703 38.5153 78.9157 38.4209 78.7432C38.3265 78.5674 38.2793 78.359 38.2793 78.1182C38.2793 77.6885 38.4356 77.332 38.7481 77.0488C39.0638 76.7624 39.4659 76.6191 39.9541 76.6191C40.4685 76.6191 40.8819 76.7689 41.1944 77.0684C41.5069 77.3678 41.6631 77.752 41.6631 78.2207H40.8037C40.8037 77.9831 40.724 77.7812 40.5645 77.6152C40.405 77.446 40.2015 77.3613 39.9541 77.3613C39.7002 77.3613 39.5 77.4281 39.3536 77.5615C39.2103 77.6917 39.1387 77.8675 39.1387 78.0889C39.1387 78.2646 39.1908 78.4062 39.295 78.5137C39.4024 78.6211 39.6579 78.7627 40.0616 78.9385C40.7028 79.1891 41.139 79.4349 41.3702 79.6758C41.6013 79.9134 41.7168 80.2161 41.7168 80.584C41.7168 81.043 41.559 81.4108 41.2432 81.6875C40.9274 81.9609 40.5043 82.0977 39.9737 82.0977C39.4235 82.0977 38.9776 81.9398 38.6358 81.624C38.294 81.3083 38.1231 80.9079 38.1231 80.4229H38.9922C39.002 80.7158 39.0915 80.9453 39.2608 81.1113C39.4301 81.2773 39.6677 81.3604 39.9737 81.3604C40.2601 81.3604 40.4782 81.2969 40.628 81.1699C40.7777 81.0397 40.8526 80.8656 40.8526 80.6475ZM45.5731 80.6475C45.5731 80.4619 45.5031 80.3024 45.3632 80.1689C45.2232 80.0355 44.953 79.8792 44.5526 79.7002C44.0871 79.5081 43.7583 79.3438 43.5663 79.207C43.3775 79.0703 43.2359 78.9157 43.1415 78.7432C43.0471 78.5674 42.9999 78.359 42.9999 78.1182C42.9999 77.6885 43.1561 77.332 43.4686 77.0488C43.7844 76.7624 44.1864 76.6191 44.6747 76.6191C45.189 76.6191 45.6024 76.7689 45.9149 77.0684C46.2274 77.3678 46.3837 77.752 46.3837 78.2207H45.5243C45.5243 77.9831 45.4445 77.7812 45.285 77.6152C45.1255 77.446 44.9221 77.3613 44.6747 77.3613C44.4208 77.3613 44.2206 77.4281 44.0741 77.5615C43.9309 77.6917 43.8593 77.8675 43.8593 78.0889C43.8593 78.2646 43.9113 78.4062 44.0155 78.5137C44.1229 78.6211 44.3785 78.7627 44.7821 78.9385C45.4234 79.1891 45.8596 79.4349 46.0907 79.6758C46.3218 79.9134 46.4374 80.2161 46.4374 80.584C46.4374 81.043 46.2795 81.4108 45.9637 81.6875C45.648 81.9609 45.2248 82.0977 44.6942 82.0977C44.1441 82.0977 43.6981 81.9398 43.3563 81.624C43.0145 81.3083 42.8436 80.9079 42.8436 80.4229H43.7128C43.7225 80.7158 43.8121 80.9453 43.9813 81.1113C44.1506 81.2773 44.3882 81.3604 44.6942 81.3604C44.9807 81.3604 45.1988 81.2969 45.3485 81.1699C45.4983 81.0397 45.5731 80.8656 45.5731 80.6475Z" fill="#5B5A5A" fill-opacity="0.8"/>
<path d="M7 24H47" stroke="#5B5A5A" stroke-opacity="0.2" stroke-linecap="round"/>
<defs>
<clipPath id="clip0">
<rect width="22.1256" height="20" fill="white" transform="translate(10)"/>
</clipPath>
</defs>
</svg>
