<svg width="54" height="99" viewBox="0 0 54 99" fill="none" xmlns="http://www.w3.org/2000/svg">
<path d="M16.5094 45.7886H13.736V34.9292L11.0309 35.9741V33.6694L16.2164 31.5503H16.5094V45.7886ZM27.1344 31.4233V33.7671H26.9781C25.943 33.7736 25.1194 34.0861 24.5074 34.7046C23.902 35.3166 23.5341 36.1759 23.4039 37.2827C23.9964 36.6056 24.7386 36.2671 25.6305 36.2671C26.6591 36.2671 27.4795 36.7065 28.0914 37.5854C28.7099 38.4644 29.0192 39.6362 29.0192 41.1011C29.0192 42.0321 28.8434 42.8719 28.4918 43.6206C28.1403 44.3693 27.6455 44.952 27.0074 45.3687C26.3759 45.7788 25.6598 45.9839 24.859 45.9839C23.5699 45.9839 22.5348 45.4663 21.7535 44.4312C20.9788 43.396 20.5914 42.0028 20.5914 40.2515V39.2261C20.5914 37.6571 20.8356 36.2834 21.3239 35.105C21.8186 33.9266 22.5283 33.0216 23.4528 32.3901C24.3837 31.7521 25.4677 31.4299 26.7047 31.4233H27.1344ZM24.7614 38.5522C24.4098 38.5522 24.1136 38.6629 23.8727 38.8843C23.6383 39.1056 23.4625 39.3791 23.3453 39.7046V40.7007C23.3453 41.7033 23.4788 42.452 23.7457 42.9468C24.0127 43.4416 24.3642 43.689 24.8004 43.689C25.2431 43.689 25.5979 43.4513 25.8649 42.9761C26.1318 42.4943 26.2653 41.8791 26.2653 41.1304C26.2653 40.3687 26.1253 39.7502 25.8453 39.2749C25.5719 38.7931 25.2106 38.5522 24.7614 38.5522ZM38.9215 39.9097C38.9215 41.8758 38.5634 43.3797 37.8473 44.4214C37.1377 45.4631 36.122 45.9839 34.8004 45.9839C33.4918 45.9839 32.4795 45.4793 31.7633 44.4702C31.0537 43.4546 30.6858 42.0028 30.6598 40.1147V37.4292C30.6598 35.4696 31.0146 33.9722 31.7242 32.937C32.4339 31.8953 33.4528 31.3745 34.7809 31.3745C36.109 31.3745 37.1279 31.8888 37.8375 32.9175C38.5472 33.9461 38.9085 35.4142 38.9215 37.3218V39.9097ZM36.1481 37.0288C36.1481 35.909 36.0374 35.0692 35.816 34.5093C35.5947 33.9494 35.2496 33.6694 34.7809 33.6694C33.902 33.6694 33.4462 34.6948 33.4137 36.7456V40.2905C33.4137 41.4364 33.5244 42.2892 33.7457 42.8491C33.9736 43.409 34.3252 43.689 34.8004 43.689C35.2496 43.689 35.5817 43.4285 35.7965 42.9077C36.0179 42.3804 36.1351 41.5763 36.1481 40.4956V37.0288Z" fill="#5B5A5A" fill-opacity="0.6"/>
<path d="M14.4199 71H13.5215V67.7139H10.6602V71H9.7666V63.8906H10.6602V66.9473H13.5215V63.8906H14.4199V71ZM15.825 68.1143C15.825 67.346 16.0106 66.7389 16.3817 66.293C16.756 65.8438 17.2492 65.6191 17.8612 65.6191C18.4732 65.6191 18.9647 65.8372 19.3358 66.2734C19.7101 66.7096 19.9022 67.3037 19.912 68.0557V68.6123C19.912 69.3773 19.7264 69.9827 19.3553 70.4287C18.9842 70.8747 18.4894 71.0977 17.8709 71.0977C17.259 71.0977 16.7674 70.8812 16.3963 70.4482C16.0285 70.0153 15.8381 69.4294 15.825 68.6904V68.1143ZM16.6893 68.6123C16.6893 69.1559 16.7951 69.584 17.0067 69.8965C17.2215 70.2057 17.5096 70.3604 17.8709 70.3604C18.6327 70.3604 19.0249 69.8102 19.0477 68.71V68.1143C19.0477 67.5739 18.9403 67.1475 18.7254 66.835C18.5106 66.5192 18.2225 66.3613 17.8612 66.3613C17.5064 66.3613 17.2215 66.5192 17.0067 66.835C16.7951 67.1475 16.6893 67.5723 16.6893 68.1094V68.6123ZM23.8805 70.5361C23.5941 70.9105 23.1758 71.0977 22.6257 71.0977C22.1471 71.0977 21.7858 70.9333 21.5417 70.6045C21.2975 70.2725 21.1738 69.7907 21.1706 69.1592V65.7168H22.03V69.0957C22.03 69.9193 22.2774 70.3311 22.7721 70.3311C23.2962 70.3311 23.6576 70.0967 23.8561 69.6279V65.7168H24.7204V71H23.9001L23.8805 70.5361ZM28.3618 66.5273C28.2414 66.5046 28.1112 66.4932 27.9712 66.4932C27.5285 66.4932 27.2193 66.7357 27.0435 67.2207V71H26.1792V65.7168H27.0191L27.0337 66.2539C27.2648 65.8307 27.592 65.6191 28.0152 65.6191C28.1519 65.6191 28.2658 65.6419 28.357 65.6875L28.3618 66.5273ZM31.9545 69.6475C31.9545 69.4619 31.8845 69.3024 31.7445 69.1689C31.6045 69.0355 31.3343 68.8792 30.9339 68.7002C30.4684 68.5081 30.1397 68.3438 29.9476 68.207C29.7588 68.0703 29.6172 67.9157 29.5228 67.7432C29.4284 67.5674 29.3812 67.359 29.3812 67.1182C29.3812 66.6885 29.5375 66.332 29.85 66.0488C30.1657 65.7624 30.5677 65.6191 31.056 65.6191C31.5703 65.6191 31.9837 65.7689 32.2962 66.0684C32.6087 66.3678 32.765 66.752 32.765 67.2207H31.9056C31.9056 66.9831 31.8259 66.7812 31.6664 66.6152C31.5069 66.446 31.3034 66.3613 31.056 66.3613C30.8021 66.3613 30.6019 66.4281 30.4554 66.5615C30.3122 66.6917 30.2406 66.8675 30.2406 67.0889C30.2406 67.2646 30.2927 67.4062 30.3968 67.5137C30.5043 67.6211 30.7598 67.7627 31.1634 67.9385C31.8047 68.1891 32.2409 68.4349 32.472 68.6758C32.7032 68.9134 32.8187 69.2161 32.8187 69.584C32.8187 70.043 32.6608 70.4108 32.3451 70.6875C32.0293 70.9609 31.6061 71.0977 31.0755 71.0977C30.5254 71.0977 30.0795 70.9398 29.7377 70.624C29.3959 70.3083 29.225 69.9079 29.225 69.4229H30.0941C30.1039 69.7158 30.1934 69.9453 30.3627 70.1113C30.5319 70.2773 30.7696 70.3604 31.0755 70.3604C31.362 70.3604 31.5801 70.2969 31.7298 70.1699C31.8796 70.0397 31.9545 69.8656 31.9545 69.6475ZM36.3809 68.1143C36.3809 67.346 36.5664 66.7389 36.9375 66.293C37.3119 65.8438 37.8051 65.6191 38.417 65.6191C39.029 65.6191 39.5205 65.8372 39.8916 66.2734C40.266 66.7096 40.458 67.3037 40.4678 68.0557V68.6123C40.4678 69.3773 40.2823 69.9827 39.9112 70.4287C39.5401 70.8747 39.0453 71.0977 38.4268 71.0977C37.8148 71.0977 37.3233 70.8812 36.9522 70.4482C36.5843 70.0153 36.3939 69.4294 36.3809 68.6904V68.1143ZM37.2452 68.6123C37.2452 69.1559 37.3509 69.584 37.5625 69.8965C37.7774 70.2057 38.0655 70.3604 38.4268 70.3604C39.1885 70.3604 39.5808 69.8102 39.6036 68.71V68.1143C39.6036 67.5739 39.4961 67.1475 39.2813 66.835C39.0664 66.5192 38.7784 66.3613 38.417 66.3613C38.0622 66.3613 37.7774 66.5192 37.5625 66.835C37.3509 67.1475 37.2452 67.5723 37.2452 68.1094V68.6123ZM42.122 71V66.415H41.4335V65.7168H42.122V65.1064C42.1317 64.5693 42.2668 64.151 42.5272 63.8516C42.7909 63.5488 43.162 63.3975 43.6405 63.3975C43.813 63.3975 43.9872 63.4251 44.163 63.4805L44.119 64.2129C43.9953 64.1836 43.8635 64.1689 43.7235 64.1689C43.232 64.1689 42.9862 64.5189 42.9862 65.2188V65.7168H43.8895V66.415H42.9862V71H42.122ZM10.7773 76.4375V77.7168H11.5732V78.415H10.7773V81.6914C10.7773 81.8997 10.8115 82.0576 10.8799 82.165C10.9482 82.2725 11.0654 82.3262 11.2314 82.3262C11.3454 82.3262 11.4609 82.3066 11.5781 82.2676L11.5684 83C11.373 83.0651 11.1729 83.0977 10.9678 83.0977C10.626 83.0977 10.3656 82.9756 10.1865 82.7314C10.0075 82.4873 9.91797 82.1423 9.91797 81.6963V78.415H9.1123V77.7168H9.91797V76.4375H10.7773ZM14.9461 78.5273C14.8257 78.5046 14.6955 78.4932 14.5555 78.4932C14.1128 78.4932 13.8036 78.7357 13.6278 79.2207V83H12.7635V77.7168H13.6034L13.618 78.2539C13.8491 77.8307 14.1763 77.6191 14.5995 77.6191C14.7362 77.6191 14.8501 77.6419 14.9413 77.6875L14.9461 78.5273ZM18.4948 83C18.4427 82.8861 18.4053 82.694 18.3825 82.4238C18.0765 82.873 17.6859 83.0977 17.2106 83.0977C16.7321 83.0977 16.3578 82.9642 16.0876 82.6973C15.8207 82.4271 15.6872 82.0479 15.6872 81.5596C15.6872 81.0225 15.8695 80.596 16.2341 80.2803C16.5986 79.9645 17.0983 79.8034 17.7331 79.7969H18.3679V79.2354C18.3679 78.9196 18.2979 78.695 18.1579 78.5615C18.0179 78.4281 17.8047 78.3613 17.5182 78.3613C17.2578 78.3613 17.0462 78.4395 16.8835 78.5957C16.7207 78.7487 16.6393 78.944 16.6393 79.1816H15.7751C15.7751 78.9115 15.8548 78.6543 16.0143 78.4102C16.1738 78.1628 16.3887 77.9691 16.6589 77.8291C16.929 77.6891 17.2302 77.6191 17.5622 77.6191C18.1026 77.6191 18.5127 77.7542 18.7927 78.0244C19.0759 78.2913 19.2207 78.682 19.2272 79.1963V81.8623C19.2305 82.2692 19.2858 82.6224 19.3932 82.9219V83H18.4948ZM17.3425 82.3115C17.554 82.3115 17.7559 82.2529 17.9479 82.1357C18.14 82.0186 18.28 81.8721 18.3679 81.6963V80.4365H17.8796C17.4694 80.443 17.1455 80.5358 16.9079 80.7148C16.6703 80.8906 16.5514 81.138 16.5514 81.457C16.5514 81.7565 16.6117 81.9746 16.7321 82.1113C16.8526 82.2448 17.056 82.3115 17.3425 82.3115ZM21.6626 83H20.7984V77.7168H21.6626V83ZM21.731 76.3154C21.731 76.4619 21.6903 76.584 21.6089 76.6816C21.5275 76.7793 21.4038 76.8281 21.2378 76.8281C21.0751 76.8281 20.953 76.7793 20.8716 76.6816C20.7902 76.584 20.7495 76.4619 20.7495 76.3154C20.7495 76.1689 20.7902 76.0452 20.8716 75.9443C20.953 75.8434 21.0751 75.793 21.2378 75.793C21.4006 75.793 21.5226 75.8451 21.604 75.9492C21.6887 76.0501 21.731 76.1722 21.731 76.3154ZM24.0004 77.7168L24.0248 78.2881C24.3601 77.8421 24.7881 77.6191 25.3089 77.6191C26.2432 77.6191 26.7168 78.2425 26.7298 79.4893V83H25.8705V79.5283C25.8705 79.1149 25.8005 78.8219 25.6605 78.6494C25.5238 78.4736 25.3171 78.3857 25.0404 78.3857C24.8255 78.3857 24.6319 78.4574 24.4593 78.6006C24.2901 78.7438 24.1533 78.931 24.0492 79.1621V83H23.1849V77.7168H24.0004ZM29.1213 83H28.257V77.7168H29.1213V83ZM29.1896 76.3154C29.1896 76.4619 29.149 76.584 29.0676 76.6816C28.9862 76.7793 28.8625 76.8281 28.6965 76.8281C28.5337 76.8281 28.4117 76.7793 28.3303 76.6816C28.2489 76.584 28.2082 76.4619 28.2082 76.3154C28.2082 76.1689 28.2489 76.0452 28.3303 75.9443C28.4117 75.8434 28.5337 75.793 28.6965 75.793C28.8592 75.793 28.9813 75.8451 29.0627 75.9492C29.1473 76.0501 29.1896 76.1722 29.1896 76.3154ZM31.459 77.7168L31.4834 78.2881C31.8187 77.8421 32.2468 77.6191 32.7676 77.6191C33.7019 77.6191 34.1755 78.2425 34.1885 79.4893V83H33.3291V79.5283C33.3291 79.1149 33.2592 78.8219 33.1192 78.6494C32.9825 78.4736 32.7758 78.3857 32.4991 78.3857C32.2842 78.3857 32.0905 78.4574 31.918 78.6006C31.7487 78.7438 31.612 78.931 31.5079 79.1621V83H30.6436V77.7168H31.459ZM35.4764 80.1191C35.4764 79.2956 35.6262 78.6738 35.9257 78.2539C36.2251 77.8307 36.663 77.6191 37.2391 77.6191C37.7763 77.6191 38.1848 77.8486 38.4647 78.3076L38.5087 77.7168H39.2899V83.0488C39.2899 83.7031 39.1223 84.2044 38.787 84.5527C38.4517 84.9043 37.9846 85.0801 37.3856 85.0801C37.1252 85.0801 36.8322 85.015 36.5067 84.8848C36.1845 84.7578 35.9419 84.5999 35.7792 84.4111L36.1307 83.8154C36.4888 84.167 36.8843 84.3428 37.3173 84.3428C38.0367 84.3428 38.4061 83.9505 38.4257 83.166V82.4775C38.1457 82.891 37.7486 83.0977 37.2343 83.0977C36.6874 83.0977 36.261 82.8926 35.955 82.4824C35.649 82.069 35.4895 81.4766 35.4764 80.7051V80.1191ZM36.3407 80.6123C36.3407 81.2048 36.427 81.641 36.5995 81.9209C36.7753 82.1976 37.0617 82.3359 37.4589 82.3359C37.8886 82.3359 38.2108 82.1162 38.4257 81.6768V79.0352C38.2011 78.6022 37.882 78.3857 37.4686 78.3857C37.0715 78.3857 36.785 78.5257 36.6093 78.8057C36.4335 79.0824 36.344 79.5088 36.3407 80.085V80.6123Z" fill="#5B5A5A" fill-opacity="0.8"/>
<path d="M9.49768 24.7886H45.4977" stroke="#5B5A5A" stroke-opacity="0.2" stroke-linecap="round"/>
<path d="M26.858 1.29863L27.6319 2.07603L27.2841 3.75313L25.1798 1.63929L26.858 1.29863ZM27.6754 5.63113C27.7798 5.63113 27.8406 5.62239 27.8667 5.59619C28.0754 5.51757 28.2145 5.36035 28.2928 5.1245L28.9189 1.99742C28.945 1.76158 28.8841 1.57814 28.7276 1.44712L27.4754 0.198034C27.3189 0.0408064 27.1363 -0.0203377 26.9276 0.00586689L23.8145 0.634778C23.5798 0.713392 23.4232 0.85315 23.345 1.06279C23.2928 1.29863 23.345 1.50827 23.5015 1.6917L27.2319 5.43896C27.3971 5.56998 27.545 5.63113 27.6754 5.63113ZM10.6319 3.75313L10.2841 2.07603L11.058 1.29863L12.7276 1.64802L10.6319 3.75313ZM14.5624 1.06279C14.4841 0.85315 14.3276 0.713392 14.0928 0.634778L10.9884 0.00586689C10.7537 -0.0203377 10.5711 0.0408064 10.4406 0.198034L9.19714 1.44712C9.04062 1.60435 8.97975 1.78778 9.00584 1.99742L9.63193 5.1245C9.71019 5.36035 9.84932 5.51757 10.058 5.59619C10.1363 5.62239 10.1971 5.63113 10.2493 5.63113C10.4058 5.60492 10.545 5.54378 10.6754 5.43896L14.4058 1.6917C14.5624 1.47333 14.6145 1.27242 14.5624 1.06279ZM21.7189 10.7148L19.5798 9.61423V6.26004C19.5276 5.86697 19.3189 5.65733 18.9537 5.63113C18.5624 5.68354 18.3537 5.89317 18.3276 6.26004V10.0073C18.3537 10.2693 18.4667 10.4528 18.6754 10.5576L21.1624 11.8067C21.2667 11.8591 21.3537 11.8853 21.4319 11.8853C21.6928 11.8591 21.8754 11.7455 21.9798 11.5359C22.1189 11.169 22.0319 10.8895 21.7189 10.7148ZM21.7971 16.2615C21.5884 16.2877 21.4319 16.3488 21.3276 16.4536H21.2928C20.5189 16.7419 19.7363 16.8816 18.9624 16.8816C18.1624 16.8816 17.3798 16.7419 16.6319 16.4536H16.5971C16.4667 16.3226 16.3102 16.2615 16.1276 16.2615C14.2841 15.4055 13.058 14.0079 12.4319 12.0775C12.2232 11.3961 12.1189 10.7061 12.1189 10.0073C12.1189 7.82358 12.9624 6.03293 14.6493 4.65282C15.9189 3.63958 17.3624 3.13295 18.9624 3.13295C21.1363 3.13295 22.9189 3.98024 24.2928 5.6748C25.3015 6.95009 25.8058 8.40008 25.8058 10.0073C25.8058 12.191 24.9537 13.9817 23.2406 15.3618C22.7711 15.7199 22.2928 16.0256 21.7971 16.2615ZM27.0493 10.0073C27.0493 7.53533 26.1189 5.4739 24.2493 3.83174C22.7189 2.53025 20.9537 1.87513 18.9624 1.87513C16.5015 1.87513 14.4493 2.80976 12.8145 4.68776C11.5189 6.23383 10.8667 7.99828 10.8667 10.0073C10.8667 12.5055 11.8145 14.5756 13.7102 16.2178C14.1537 16.5585 14.5884 16.8554 15.0319 17.1175L13.2406 18.9518C12.9537 19.2401 12.9537 19.5283 13.2406 19.8078C13.3971 19.9389 13.5363 20 13.6667 20C13.8232 19.9738 13.9624 19.9127 14.0928 19.8078L16.2667 17.6591C17.0928 17.9735 17.9884 18.1307 18.9537 18.1307C19.9363 18.1307 20.8319 17.9735 21.6406 17.6591L23.8145 19.8078C23.9711 19.9389 24.1102 20 24.2406 20C24.3971 19.9738 24.5363 19.9127 24.6667 19.8078C24.9537 19.5196 24.9537 19.2313 24.6667 18.9518L22.8754 17.1175C24.9276 15.9732 26.2319 14.2612 26.8058 11.9989C26.9711 11.3263 27.0493 10.6624 27.0493 10.0073Z" fill="#5B5A5A" fill-opacity="0.8"/>
</svg>
