<svg width="170" height="97" viewBox="0 0 170 97" fill="none" xmlns="http://www.w3.org/2000/svg">
<line x1="10" y1="69.75" x2="160" y2="69.75" stroke="#333333" stroke-width="0.5"/>
<path d="M20.5527 80.0098C20.5527 80.8457 20.4121 81.5762 20.1309 82.2012C19.8496 82.8223 19.4512 83.2969 18.9355 83.625C18.4199 83.9531 17.8184 84.1172 17.1309 84.1172C16.459 84.1172 15.8633 83.9531 15.3438 83.625C14.8242 83.293 14.4199 82.8223 14.1309 82.2129C13.8457 81.5996 13.6992 80.8906 13.6914 80.0859V79.4707C13.6914 78.6504 13.834 77.9258 14.1191 77.2969C14.4043 76.668 14.8066 76.1875 15.3262 75.8555C15.8496 75.5195 16.4473 75.3516 17.1191 75.3516C17.8027 75.3516 18.4043 75.5176 18.9238 75.8496C19.4473 76.1777 19.8496 76.6562 20.1309 77.2852C20.4121 77.9102 20.5527 78.6387 20.5527 79.4707V80.0098ZM19.4336 79.459C19.4336 78.4473 19.2305 77.6719 18.8242 77.1328C18.418 76.5898 17.8496 76.3184 17.1191 76.3184C16.4082 76.3184 15.8477 76.5898 15.4375 77.1328C15.0312 77.6719 14.8223 78.4219 14.8105 79.3828V80.0098C14.8105 80.9902 15.0156 81.7617 15.4258 82.3242C15.8398 82.8828 16.4082 83.1621 17.1309 83.1621C17.8574 83.1621 18.4199 82.8984 18.8184 82.3711C19.2168 81.8398 19.4219 81.0801 19.4336 80.0918V79.459ZM25.1348 78.6328C24.9707 78.6055 24.793 78.5918 24.6016 78.5918C23.8906 78.5918 23.4082 78.8945 23.1543 79.5V84H22.0703V77.6602H23.125L23.1426 78.3926C23.498 77.8262 24.002 77.543 24.6543 77.543C24.8652 77.543 25.0254 77.5703 25.1348 77.625V78.6328ZM27.9062 81.0645L27.2266 81.7734V84H26.1426V75H27.2266V80.4434L27.8066 79.7461L29.7812 77.6602H31.0996L28.6328 80.3086L31.3867 84H30.1152L27.9062 81.0645ZM33.3965 84H32.3125V77.6602H33.3965V84ZM32.2246 75.9785C32.2246 75.8027 32.2773 75.6543 32.3828 75.5332C32.4922 75.4121 32.6523 75.3516 32.8633 75.3516C33.0742 75.3516 33.2344 75.4121 33.3438 75.5332C33.4531 75.6543 33.5078 75.8027 33.5078 75.9785C33.5078 76.1543 33.4531 76.3008 33.3438 76.418C33.2344 76.5352 33.0742 76.5938 32.8633 76.5938C32.6523 76.5938 32.4922 76.5352 32.3828 76.418C32.2773 76.3008 32.2246 76.1543 32.2246 75.9785ZM36.1621 77.6602L36.1973 78.457C36.6816 77.8477 37.3145 77.543 38.0957 77.543C39.4355 77.543 40.1113 78.2988 40.123 79.8105V84H39.0391V79.8047C39.0352 79.3477 38.9297 79.0098 38.7227 78.791C38.5195 78.5723 38.2012 78.4629 37.7676 78.4629C37.416 78.4629 37.1074 78.5566 36.8418 78.7441C36.5762 78.9316 36.3691 79.1777 36.2207 79.4824V84H35.1367V77.6602H36.1621ZM41.4648 79.7285C41.4648 78.9395 41.6465 78.207 42.0098 77.5312C42.377 76.8555 42.8828 76.3242 43.5273 75.9375C44.1758 75.5469 44.875 75.3516 45.625 75.3516C46.375 75.3516 47.0723 75.5469 47.7168 75.9375C48.3613 76.3242 48.8652 76.8555 49.2285 77.5312C49.5957 78.207 49.7793 78.9395 49.7793 79.7285C49.7793 80.498 49.6035 81.2188 49.252 81.8906C48.9004 82.5625 48.4004 83.1035 47.752 83.5137C47.1074 83.9199 46.3984 84.123 45.625 84.123C44.8555 84.123 44.1465 83.9219 43.498 83.5195C42.8535 83.1133 42.3535 82.5742 41.998 81.9023C41.6426 81.2305 41.4648 80.5059 41.4648 79.7285ZM42.1387 79.7285C42.1387 80.4004 42.2949 81.0234 42.6074 81.5977C42.9199 82.168 43.3438 82.6152 43.8789 82.9395C44.418 83.2637 45 83.4258 45.625 83.4258C46.2539 83.4258 46.8379 83.2617 47.377 82.9336C47.916 82.6016 48.3379 82.1523 48.6426 81.5859C48.9512 81.0195 49.1055 80.4004 49.1055 79.7285C49.1055 79.0605 48.9512 78.4453 48.6426 77.8828C48.3379 77.3164 47.916 76.8711 47.377 76.5469C46.8379 76.2188 46.2539 76.0547 45.625 76.0547C45 76.0547 44.418 76.2168 43.8789 76.541C43.3398 76.8613 42.9141 77.3066 42.6016 77.877C42.293 78.4473 42.1387 79.0645 42.1387 79.7285ZM44.7637 80.168V82.1484H43.9375V77.1738H45.5547C46.1523 77.1738 46.6152 77.3027 46.9434 77.5605C47.2754 77.8145 47.4414 78.1855 47.4414 78.6738C47.4414 79.1543 47.1914 79.5215 46.6914 79.7754C47.168 79.9707 47.4082 80.3691 47.4121 80.9707V81.3281C47.4121 81.6641 47.4453 81.9062 47.5117 82.0547V82.1484H46.6621C46.6074 82.0078 46.5801 81.7578 46.5801 81.3984C46.5801 81.0352 46.5742 80.8203 46.5625 80.7539C46.5 80.3789 46.2441 80.1836 45.7949 80.168H44.7637ZM44.7637 79.418H45.6777C45.959 79.4102 46.1855 79.3418 46.3574 79.2129C46.5293 79.084 46.6152 78.9141 46.6152 78.7031C46.6152 78.418 46.5391 78.2168 46.3867 78.0996C46.2344 77.9785 45.9629 77.918 45.5723 77.918H44.7637V79.418ZM59.0488 81.7734H55.4746L54.6719 84H53.5117L56.7695 75.4688H57.7539L61.0176 84H59.8633L59.0488 81.7734ZM55.8145 80.8477H58.7148L57.2617 76.8574L55.8145 80.8477ZM65.8398 83.373C65.418 83.8691 64.7988 84.1172 63.9824 84.1172C63.3066 84.1172 62.791 83.9219 62.4355 83.5312C62.084 83.1367 61.9062 82.5547 61.9023 81.7852V77.6602H62.9863V81.7559C62.9863 82.7168 63.377 83.1973 64.1582 83.1973C64.9863 83.1973 65.5371 82.8887 65.8105 82.2715V77.6602H66.8945V84H65.8633L65.8398 83.373ZM70.0176 76.125V77.6602H71.2012V78.498H70.0176V82.4297C70.0176 82.6836 70.0703 82.875 70.1758 83.0039C70.2812 83.1289 70.4609 83.1914 70.7148 83.1914C70.8398 83.1914 71.0117 83.168 71.2305 83.1211V84C70.9453 84.0781 70.668 84.1172 70.3984 84.1172C69.9141 84.1172 69.5488 83.9707 69.3027 83.6777C69.0566 83.3848 68.9336 82.9688 68.9336 82.4297V78.498H67.7793V77.6602H68.9336V76.125H70.0176ZM73.5566 78.4277C74.0371 77.8379 74.6621 77.543 75.4316 77.543C76.7715 77.543 77.4473 78.2988 77.459 79.8105V84H76.375V79.8047C76.3711 79.3477 76.2656 79.0098 76.0586 78.791C75.8555 78.5723 75.5371 78.4629 75.1035 78.4629C74.752 78.4629 74.4434 78.5566 74.1777 78.7441C73.9121 78.9316 73.7051 79.1777 73.5566 79.4824V84H72.4727V75H73.5566V78.4277ZM78.7949 80.7715C78.7949 80.1504 78.916 79.5918 79.1582 79.0957C79.4043 78.5996 79.7441 78.2168 80.1777 77.9473C80.6152 77.6777 81.1133 77.543 81.6719 77.543C82.5352 77.543 83.2324 77.8418 83.7637 78.4395C84.2988 79.0371 84.5664 79.832 84.5664 80.8242V80.9004C84.5664 81.5176 84.4473 82.0723 84.209 82.5645C83.9746 83.0527 83.6367 83.4336 83.1953 83.707C82.7578 83.9805 82.2539 84.1172 81.6836 84.1172C80.8242 84.1172 80.127 83.8184 79.5918 83.2207C79.0605 82.623 78.7949 81.832 78.7949 80.8477V80.7715ZM79.8848 80.9004C79.8848 81.6035 80.0469 82.168 80.3711 82.5938C80.6992 83.0195 81.1367 83.2324 81.6836 83.2324C82.2344 83.2324 82.6719 83.0176 82.9961 82.5879C83.3203 82.1543 83.4824 81.5488 83.4824 80.7715C83.4824 80.0762 83.3164 79.5137 82.9844 79.084C82.6562 78.6504 82.2188 78.4336 81.6719 78.4336C81.1367 78.4336 80.7051 78.6465 80.377 79.0723C80.0488 79.498 79.8848 80.1074 79.8848 80.9004ZM88.9902 78.6328C88.8262 78.6055 88.6484 78.5918 88.457 78.5918C87.7461 78.5918 87.2637 78.8945 87.0098 79.5V84H85.9258V77.6602H86.9805L86.998 78.3926C87.3535 77.8262 87.8574 77.543 88.5098 77.543C88.7207 77.543 88.8809 77.5703 88.9902 77.625V78.6328ZM91.1699 84H90.0859V77.6602H91.1699V84ZM89.998 75.9785C89.998 75.8027 90.0508 75.6543 90.1562 75.5332C90.2656 75.4121 90.4258 75.3516 90.6367 75.3516C90.8477 75.3516 91.0078 75.4121 91.1172 75.5332C91.2266 75.6543 91.2812 75.8027 91.2812 75.9785C91.2812 76.1543 91.2266 76.3008 91.1172 76.418C91.0078 76.5352 90.8477 76.5938 90.6367 76.5938C90.4258 76.5938 90.2656 76.5352 90.1562 76.418C90.0508 76.3008 89.998 76.1543 89.998 75.9785ZM93.9297 83.1152H97.6387V84H92.6055V83.2031L96.1035 78.5566H92.6582V77.6602H97.4629V78.4277L93.9297 83.1152ZM101.4 84.1172C100.541 84.1172 99.8418 83.8359 99.3027 83.2734C98.7637 82.707 98.4941 81.9512 98.4941 81.0059V80.8066C98.4941 80.1777 98.6133 79.6172 98.8516 79.125C99.0938 78.6289 99.4297 78.2422 99.8594 77.9648C100.293 77.6836 100.762 77.543 101.266 77.543C102.09 77.543 102.73 77.8145 103.188 78.3574C103.645 78.9004 103.873 79.6777 103.873 80.6895V81.1406H99.5781C99.5938 81.7656 99.7754 82.2715 100.123 82.6582C100.475 83.041 100.92 83.2324 101.459 83.2324C101.842 83.2324 102.166 83.1543 102.432 82.998C102.697 82.8418 102.93 82.6348 103.129 82.377L103.791 82.8926C103.26 83.709 102.463 84.1172 101.4 84.1172ZM101.266 78.4336C100.828 78.4336 100.461 78.5938 100.164 78.9141C99.8672 79.2305 99.6836 79.6758 99.6133 80.25H102.789V80.168C102.758 79.6172 102.609 79.1914 102.344 78.8906C102.078 78.5859 101.719 78.4336 101.266 78.4336ZM104.869 80.7773C104.869 79.8047 105.1 79.0234 105.561 78.4336C106.021 77.8398 106.625 77.543 107.371 77.543C108.113 77.543 108.701 77.7969 109.135 78.3047V75H110.219V84H109.223L109.17 83.3203C108.736 83.8516 108.133 84.1172 107.359 84.1172C106.625 84.1172 106.025 83.8164 105.561 83.2148C105.1 82.6133 104.869 81.8281 104.869 80.8594V80.7773ZM105.953 80.9004C105.953 81.6191 106.102 82.1816 106.398 82.5879C106.695 82.9941 107.105 83.1973 107.629 83.1973C108.316 83.1973 108.818 82.8887 109.135 82.2715V79.3594C108.811 78.7617 108.312 78.4629 107.641 78.4629C107.109 78.4629 106.695 78.668 106.398 79.0781C106.102 79.4883 105.953 80.0957 105.953 80.9004ZM118.182 80.5488H116.178V84H115.047V75.4688H117.871C118.832 75.4688 119.57 75.6875 120.086 76.125C120.605 76.5625 120.865 77.1992 120.865 78.0352C120.865 78.5664 120.721 79.0293 120.432 79.4238C120.146 79.8184 119.748 80.1133 119.236 80.3086L121.24 83.9297V84H120.033L118.182 80.5488ZM116.178 79.6289H117.906C118.465 79.6289 118.908 79.4844 119.236 79.1953C119.568 78.9062 119.734 78.5195 119.734 78.0352C119.734 77.5078 119.576 77.1035 119.26 76.8223C118.947 76.541 118.494 76.3984 117.9 76.3945H116.178V79.6289ZM124.908 84.1172C124.049 84.1172 123.35 83.8359 122.811 83.2734C122.271 82.707 122.002 81.9512 122.002 81.0059V80.8066C122.002 80.1777 122.121 79.6172 122.359 79.125C122.602 78.6289 122.938 78.2422 123.367 77.9648C123.801 77.6836 124.27 77.543 124.773 77.543C125.598 77.543 126.238 77.8145 126.695 78.3574C127.152 78.9004 127.381 79.6777 127.381 80.6895V81.1406H123.086C123.102 81.7656 123.283 82.2715 123.631 82.6582C123.982 83.041 124.428 83.2324 124.967 83.2324C125.35 83.2324 125.674 83.1543 125.939 82.998C126.205 82.8418 126.438 82.6348 126.637 82.377L127.299 82.8926C126.768 83.709 125.971 84.1172 124.908 84.1172ZM124.773 78.4336C124.336 78.4336 123.969 78.5938 123.672 78.9141C123.375 79.2305 123.191 79.6758 123.121 80.25H126.297V80.168C126.266 79.6172 126.117 79.1914 125.852 78.8906C125.586 78.5859 125.227 78.4336 124.773 78.4336ZM132.332 82.3184C132.332 82.0254 132.221 81.7988 131.998 81.6387C131.779 81.4746 131.395 81.334 130.844 81.2168C130.297 81.0996 129.861 80.959 129.537 80.7949C129.217 80.6309 128.979 80.4355 128.822 80.209C128.67 79.9824 128.594 79.7129 128.594 79.4004C128.594 78.8809 128.812 78.4414 129.25 78.082C129.691 77.7227 130.254 77.543 130.938 77.543C131.656 77.543 132.238 77.7285 132.684 78.0996C133.133 78.4707 133.357 78.9453 133.357 79.5234H132.268C132.268 79.2266 132.141 78.9707 131.887 78.7559C131.637 78.541 131.32 78.4336 130.938 78.4336C130.543 78.4336 130.234 78.5195 130.012 78.6914C129.789 78.8633 129.678 79.0879 129.678 79.3652C129.678 79.627 129.781 79.8242 129.988 79.957C130.195 80.0898 130.568 80.2168 131.107 80.3379C131.65 80.459 132.09 80.6035 132.426 80.7715C132.762 80.9395 133.01 81.1426 133.17 81.3809C133.334 81.6152 133.416 81.9023 133.416 82.2422C133.416 82.8086 133.189 83.2637 132.736 83.6074C132.283 83.9473 131.695 84.1172 130.973 84.1172C130.465 84.1172 130.016 84.0273 129.625 83.8477C129.234 83.668 128.928 83.418 128.705 83.0977C128.486 82.7734 128.377 82.4238 128.377 82.0488H129.461C129.48 82.4121 129.625 82.7012 129.895 82.916C130.168 83.127 130.527 83.2324 130.973 83.2324C131.383 83.2324 131.711 83.1504 131.957 82.9863C132.207 82.8184 132.332 82.5957 132.332 82.3184ZM137.459 84.1172C136.6 84.1172 135.9 83.8359 135.361 83.2734C134.822 82.707 134.553 81.9512 134.553 81.0059V80.8066C134.553 80.1777 134.672 79.6172 134.91 79.125C135.152 78.6289 135.488 78.2422 135.918 77.9648C136.352 77.6836 136.82 77.543 137.324 77.543C138.148 77.543 138.789 77.8145 139.246 78.3574C139.703 78.9004 139.932 79.6777 139.932 80.6895V81.1406H135.637C135.652 81.7656 135.834 82.2715 136.182 82.6582C136.533 83.041 136.979 83.2324 137.518 83.2324C137.9 83.2324 138.225 83.1543 138.49 82.998C138.756 82.8418 138.988 82.6348 139.188 82.377L139.85 82.8926C139.318 83.709 138.521 84.1172 137.459 84.1172ZM137.324 78.4336C136.887 78.4336 136.52 78.5938 136.223 78.9141C135.926 79.2305 135.742 79.6758 135.672 80.25H138.848V80.168C138.816 79.6172 138.668 79.1914 138.402 78.8906C138.137 78.5859 137.777 78.4336 137.324 78.4336ZM142.369 84H141.285V75H142.369V84ZM145.287 84H144.203V75H145.287V84ZM149.658 84.1172C148.799 84.1172 148.1 83.8359 147.561 83.2734C147.021 82.707 146.752 81.9512 146.752 81.0059V80.8066C146.752 80.1777 146.871 79.6172 147.109 79.125C147.352 78.6289 147.688 78.2422 148.117 77.9648C148.551 77.6836 149.02 77.543 149.523 77.543C150.348 77.543 150.988 77.8145 151.445 78.3574C151.902 78.9004 152.131 79.6777 152.131 80.6895V81.1406H147.836C147.852 81.7656 148.033 82.2715 148.381 82.6582C148.732 83.041 149.178 83.2324 149.717 83.2324C150.1 83.2324 150.424 83.1543 150.689 82.998C150.955 82.8418 151.188 82.6348 151.387 82.377L152.049 82.8926C151.518 83.709 150.721 84.1172 149.658 84.1172ZM149.523 78.4336C149.086 78.4336 148.719 78.5938 148.422 78.9141C148.125 79.2305 147.941 79.6758 147.871 80.25H151.047V80.168C151.016 79.6172 150.867 79.1914 150.602 78.8906C150.336 78.5859 149.977 78.4336 149.523 78.4336ZM156.455 78.6328C156.291 78.6055 156.113 78.5918 155.922 78.5918C155.211 78.5918 154.729 78.8945 154.475 79.5V84H153.391V77.6602H154.445L154.463 78.3926C154.818 77.8262 155.322 77.543 155.975 77.543C156.186 77.543 156.346 77.5703 156.455 77.625V78.6328Z" fill="#231F20"/>
<path d="M22.6728 38.1652C22.6756 37.1456 22.6781 36.1257 22.6805 35.1056C21.0182 35.1443 19.3557 35.1849 17.693 35.2273L17.6846 40.4776C18.8869 40.4077 20.0895 40.3401 21.2922 40.2748L21.2839 44.0537C20.082 44.1469 18.8804 44.2422 17.679 44.3396C17.6753 46.3066 17.6723 48.2732 17.67 50.2393C18.5256 50.1377 19.3818 50.0384 20.2388 49.9415C20.236 51.2095 20.2335 52.477 20.2311 53.7441C17.1504 54.1635 14.0733 54.6144 11 55.0967V51.0669C11.7857 50.9648 12.5714 50.8642 13.3571 50.7649C13.3599 45.6239 13.3629 40.4824 13.3661 35.3405C12.5777 35.3615 11.789 35.3832 11 35.4055V31.3757C15.9579 31.3673 20.9157 31.3597 25.8736 31.3527C25.867 33.5802 25.8605 35.8084 25.854 38.0373C24.7938 38.0788 23.7334 38.1214 22.6728 38.1652Z" fill="black"/>
<path d="M34.4035 34.8561C34.3853 39.41 34.3674 43.9638 34.3497 48.5176C35.2011 48.4431 36.0522 48.3699 36.9032 48.2981C36.899 49.4548 36.8943 50.6116 36.8892 51.7687C33.7627 52.0842 30.6386 52.4302 27.5168 52.8067C27.5206 51.5919 27.5243 50.3768 27.528 49.1614C28.3608 49.078 29.1931 48.9962 30.0249 48.9161C30.0412 44.256 30.0575 39.5978 30.0738 34.9414L27.5742 34.9945C27.5779 33.7797 27.5816 32.5645 27.5853 31.3492L36.9731 31.338C36.9684 32.4946 36.9635 33.6515 36.9584 34.8086L34.4035 34.8561Z" fill="black"/>
<path d="M52.1109 34.5765L49.9726 34.6031L49.9866 31.3226L57.4017 31.317C57.398 32.3837 57.394 33.4504 57.3898 34.5171L55.0761 34.5416L55.0132 50.4168C53.7843 50.4937 52.5559 50.5752 51.328 50.6615C48.9513 46.0794 46.5747 41.3926 44.198 36.5603C44.1817 40.2856 44.1657 44.0104 44.1498 47.7347C44.8442 47.6853 45.5385 47.6373 46.2329 47.5907L46.2182 50.9194C43.795 51.1151 41.3717 51.3297 38.9485 51.5632C38.9536 50.4173 38.9585 49.2716 38.9632 48.1261C39.7088 48.067 40.4544 48.0087 41.2 47.9514L41.2566 34.7317L39.0198 34.7694C39.0244 33.624 39.0293 32.4785 39.0345 31.3331L46.0092 31.3261C48.0298 35.4121 50.0518 39.4034 52.0752 43.3002L52.1109 34.5765Z" fill="black"/>
<path d="M77.012 40.5978C77.0597 42.2834 76.6747 43.9531 75.8935 45.4476C75.1895 46.7444 74.1226 47.8079 72.8235 48.5078C71.4268 49.2383 69.8783 49.6312 68.3023 49.6549C65.2429 49.7598 62.1838 49.8937 59.1249 50.0568C59.1291 48.9957 59.1331 47.9349 59.1368 46.8742C59.9794 46.8365 60.8217 46.8008 61.6638 46.7673C61.6777 42.6711 61.6915 38.5751 61.705 34.4794L59.1816 34.5024C59.1848 33.4413 59.1886 32.3805 59.1928 31.3198L68.1513 31.315C69.7224 31.2853 71.2798 31.6135 72.7053 32.2747C74.0486 32.9314 75.1497 33.9962 75.8509 35.3168C76.6822 36.9492 77.082 38.7672 77.012 40.5978ZM72.4879 40.4888C72.4917 38.4849 72.0702 36.9727 71.2234 35.9522C70.7591 35.4286 70.18 35.0193 69.5315 34.7563C68.8829 34.4933 68.1823 34.3837 67.4844 34.436L66.0165 34.4458C66.0053 38.5001 65.9939 42.5544 65.9822 46.6086L66.9979 46.5765C68.2145 46.6097 69.4144 46.2878 70.451 45.6503C71.2143 45.137 71.7848 44.3842 72.0727 43.5106C72.3647 42.5305 72.5047 41.5113 72.4879 40.4888Z" fill="black"/>
<path d="M109.739 37.274C109.746 39.313 109.187 40.8019 108.061 41.7302C106.935 42.6585 105.18 43.0828 102.797 43.0234C102.216 43.0085 101.635 42.9947 101.053 42.9821C101.056 44.1719 101.059 45.3602 101.063 46.5471C101.839 46.5695 102.616 46.5928 103.392 46.617C103.396 47.6613 103.399 48.7056 103.401 49.75C100.478 49.633 97.5542 49.5435 94.6296 49.4815C94.6296 48.4526 94.6279 47.4234 94.6247 46.394C95.3237 46.4066 96.0227 46.4203 96.7217 46.4353C96.7143 42.4253 96.7063 38.4148 96.6979 34.4039L94.6009 34.3948C94.6009 33.3658 94.5993 32.3367 94.596 31.3073H102.672C105.046 31.3073 106.813 31.7889 107.977 32.7633C109.142 33.7377 109.732 35.2511 109.739 37.274ZM105.174 37.2041C105.211 36.586 105.063 35.9708 104.749 35.437C104.463 35.0257 104.031 34.7392 103.541 34.6359C102.942 34.5015 102.329 34.4358 101.715 34.4402L101.032 34.436C101.037 36.2702 101.042 38.1049 101.047 39.94L101.73 39.9519C102.452 39.9962 103.176 39.9035 103.864 39.6786C104.313 39.5278 104.684 39.2063 104.898 38.7839C105.104 38.2826 105.198 37.7426 105.174 37.2013V37.2041Z" fill="black"/>
<path d="M123.379 37.5481C123.374 36.5881 123.37 35.6279 123.366 34.6675C121.651 34.6423 119.935 34.619 118.22 34.5976C118.226 36.0711 118.232 37.5446 118.238 39.0181C119.624 39.0586 121.009 39.1013 122.394 39.146C122.398 40.2453 122.403 41.3446 122.408 42.444C121.023 42.3801 119.637 42.32 118.252 42.2636L118.273 47.3112C119.99 47.4132 121.706 47.5227 123.422 47.6397C123.418 46.6709 123.414 45.7018 123.41 44.7325C124.472 44.7926 125.534 44.8549 126.595 44.9192L126.622 51.2501C121.741 50.8158 116.854 50.4572 111.964 50.1743C111.96 49.1062 111.956 48.0386 111.952 46.9715C112.622 47.0036 113.291 47.0369 113.96 47.0714C113.943 42.8965 113.927 38.7213 113.91 34.5458L111.904 34.5242C111.901 33.4565 111.897 32.3889 111.892 31.3213C116.774 31.325 121.655 31.3292 126.536 31.3339L126.563 37.6376C125.502 37.6063 124.441 37.5765 123.379 37.5481Z" fill="black"/>
<path d="M136.971 33.082C136.968 32.5023 136.966 31.923 136.964 31.3442L139.784 31.3477C139.792 33.4914 139.799 35.6364 139.807 37.7828C138.867 37.7488 137.927 37.7155 136.988 37.6829C136.936 36.8526 136.661 36.0517 136.191 35.3649C136.008 35.1176 135.769 34.9166 135.495 34.7782C135.22 34.6398 134.916 34.5679 134.608 34.5681C134.39 34.5621 134.174 34.6006 133.971 34.6813C133.769 34.7619 133.585 34.8831 133.431 35.0372C133.277 35.1914 133.156 35.3753 133.075 35.5778C132.995 35.7803 132.956 35.9971 132.963 36.2149C132.955 36.6085 133.063 36.9956 133.274 37.3278C133.485 37.6469 133.756 37.9225 134.071 38.1393C134.395 38.3658 134.881 38.6692 135.528 39.0536C135.753 39.1823 135.977 39.3116 136.201 39.4416C137.523 40.1704 138.659 41.1948 139.52 42.4347C140.3 43.6866 140.693 45.1406 140.65 46.6148C140.657 48.5721 140.226 50.0784 139.358 51.113C138.937 51.6181 138.391 52.0037 137.774 52.2311C137.158 52.4586 136.492 52.5199 135.844 52.4089C135.132 52.3268 134.451 52.0686 133.864 51.6577C133.276 51.2468 132.8 50.6962 132.479 50.0554C132.482 50.6397 132.484 51.2239 132.486 51.8078C131.546 51.7118 130.607 51.6186 129.667 51.5282C129.658 49.242 129.648 46.955 129.638 44.6674C130.579 44.727 131.518 44.7886 132.458 44.8519C132.459 45.8405 132.723 46.8111 133.223 47.6641C133.416 47.9769 133.679 48.2401 133.993 48.4323C134.306 48.6245 134.66 48.7404 135.026 48.7706C135.267 48.7968 135.511 48.7615 135.735 48.6682C135.959 48.5748 136.156 48.4263 136.307 48.2365C136.663 47.8055 136.847 47.2575 136.823 46.6987C136.817 46.0581 136.604 45.4366 136.217 44.9267C135.649 44.2347 134.954 43.6583 134.168 43.2288C132.785 42.4613 131.569 41.424 130.594 40.1783C129.857 39.1499 129.466 37.9146 129.475 36.6497C129.458 35.6842 129.653 34.7266 130.046 33.8446C130.395 33.0463 130.95 32.3553 131.654 31.8426C132.302 31.3647 133.086 31.1064 133.891 31.1052C134.515 31.0983 135.127 31.2708 135.655 31.6022C136.217 31.9707 136.67 32.4813 136.971 33.082Z" fill="black"/>
<path d="M155.209 40.7397C155.209 38.9362 155.208 37.1325 155.205 35.3286L152.629 35.2587L152.648 50.3944C153.472 50.4932 154.295 50.5941 155.117 50.6971C155.117 52.0154 155.117 53.3337 155.117 54.6521C152.03 54.1889 148.941 53.7557 145.848 53.3526C145.844 52.107 145.841 50.8613 145.838 49.6157C146.677 49.7089 147.515 49.8021 148.354 49.8953C148.344 44.9803 148.333 40.066 148.323 35.1525L145.801 35.0923C145.806 36.7956 145.81 38.4989 145.814 40.2021C144.875 40.1518 143.936 40.1029 142.997 40.0553C142.989 37.1544 142.98 34.2533 142.971 31.3519C147.98 31.358 152.99 31.3657 158 31.375V40.9137C157.07 40.8545 156.139 40.7965 155.209 40.7397Z" fill="black"/>
<path d="M83.7369 29.7268C88.6386 29.7268 92.6123 25.7531 92.6123 20.8514C92.6123 15.9497 88.6386 11.9761 83.7369 11.9761C78.8352 11.9761 74.8616 15.9497 74.8616 20.8514C74.8616 25.7531 78.8352 29.7268 83.7369 29.7268Z" stroke="black" stroke-width="3.953" stroke-linecap="round" stroke-linejoin="round"/>
<path d="M83.7 30.0217V46.1612" stroke="black" stroke-width="4.419" stroke-linecap="round" stroke-linejoin="round"/>
<path d="M83.7 35.281V48.6825" stroke="black" stroke-width="6.588" stroke-linecap="round" stroke-linejoin="round"/>
<path d="M79.9939 19.8643L83.6085 23.4789L94.2908 12.7966" stroke="#01A0C6" stroke-width="3.953" stroke-miterlimit="10"/>
<path d="M104.257 63.4315C104.31 63.0829 104.364 62.7334 104.418 62.3829C104.759 62.4351 105.1 62.4885 105.441 62.543L105.276 63.5915C104.936 63.5375 104.596 63.4841 104.257 63.4315Z" fill="black"/>
<path d="M61.7839 62.8918C61.7284 62.5432 61.6729 62.1937 61.6175 61.8433C61.9586 61.7888 62.2997 61.7354 62.6409 61.6832L62.8023 62.7317C62.4626 62.7844 62.1231 62.8378 61.7839 62.8918Z" fill="black"/>
<path d="M71.5119 60.4684C70.8552 60.7735 70.2009 61.0808 69.5492 61.3904L70.6566 63.7239C70.2833 63.9011 69.9101 64.0793 69.5371 64.2584C68.5471 62.198 67.5569 60.1377 66.5664 58.0774C67.6115 57.5746 68.6601 57.0789 69.7123 56.5902C71.4655 55.7777 72.5865 56.2055 73.0779 57.2879L73.1541 57.4568C73.6449 58.5523 73.2339 59.6699 71.5119 60.4684ZM71.9183 57.8211C71.6832 57.3066 71.1499 57.0841 70.2783 57.489C69.5724 57.8165 68.8679 58.1472 68.1647 58.4811C68.4815 59.1476 68.798 59.8139 69.1142 60.48C69.8272 60.1419 70.542 59.8066 71.2584 59.4742C72.1225 59.0732 72.2402 58.5258 72.0069 58.0174L71.9183 57.8211Z" fill="black"/>
<path d="M81.8335 61.435C81.3584 61.4715 81.1323 61.064 81.0499 60.4213C81.0182 60.1632 80.9866 59.9058 80.9549 59.6477C80.8772 59.015 80.5839 58.7425 79.479 58.8352C78.7765 58.8952 78.0745 58.9579 77.3731 59.0234L77.6298 61.7737C77.2246 61.8112 76.8201 61.8498 76.4165 61.8895C76.198 59.6543 75.9789 57.4189 75.7593 55.1833C76.8937 55.0726 78.0287 54.969 79.1643 54.8722C81.0669 54.7091 81.9564 55.4323 82.0354 56.4599L82.0428 56.5605C82.0967 57.2975 81.7848 57.9584 80.6124 58.2749C81.8089 58.2688 82.1516 58.8458 82.2054 59.5822C82.2255 59.8037 82.2451 60.0259 82.2652 60.2474C82.2645 60.4234 82.3061 60.5969 82.3866 60.7534C82.4671 60.9098 82.5841 61.0446 82.7277 61.1463L82.7444 61.3682C82.442 61.3891 82.1378 61.4124 81.8335 61.435ZM80.7825 56.6666C80.7467 56.2027 80.3705 55.7946 79.3968 55.8768C78.6314 55.9412 77.8651 56.0093 77.0978 56.081L77.2883 58.126C78.0649 58.0536 78.8415 57.9848 79.618 57.9195C80.4698 57.848 80.8372 57.4043 80.7942 56.8595L80.7825 56.6666Z" fill="black"/>
<path d="M88.1501 55.7717C87.1566 55.6669 86.266 56.3616 86.1649 57.3204L86.0181 58.7114C85.9169 59.6702 86.6428 60.5355 87.6363 60.6403L88.2685 60.7071C89.262 60.8119 90.1526 60.1172 90.2538 59.1584L90.4005 57.7674C90.5017 56.8086 89.7758 55.9433 88.7823 55.8384L88.1501 55.7717ZM88.2602 54.7284L88.8924 54.7952C90.4637 54.961 91.606 56.341 91.4438 57.8775L91.297 59.2685C91.1349 60.805 89.7297 61.9161 88.1584 61.7503L87.5262 61.6836C85.955 61.5178 84.8126 60.1378 84.9748 58.6013L85.1216 57.2103C85.2837 55.6738 86.6889 54.5626 88.2602 54.7284Z" fill="black"/>
<path d="M95.4363 63.5284C94.3485 63.1352 93.393 62.4445 92.6783 61.535C92.9593 61.3163 93.2407 61.0981 93.5224 60.8805C94.1264 61.6886 94.9528 62.3031 95.9005 62.6491C96.9878 63.0293 97.6456 62.7995 97.8208 62.3112C98.3234 60.8985 93.3892 60.1338 94.1334 57.9045C94.4977 56.8113 95.9159 56.3238 97.7249 56.9531C98.7964 57.294 99.6963 58.033 100.239 59.0178C99.9217 59.166 99.6053 59.3151 99.2899 59.4651C98.8578 58.73 98.1831 58.1684 97.3818 57.8768C96.3272 57.5099 95.4868 57.6387 95.3064 58.1653C94.8652 59.4551 99.7805 60.4041 98.9821 62.6008C98.5659 63.7602 97.1123 64.109 95.4363 63.5284Z" fill="black"/>
</svg>
