<svg width="175" height="98" viewBox="0 0 175 98" fill="none" xmlns="http://www.w3.org/2000/svg">
<path d="M87.6555 87.8906L10.6592 49.3885L87.6555 10.8906L164.655 49.3885L87.6555 87.8906Z" fill="#E13A3E"/>
<path d="M46.8187 61.8069C53.1073 61.7054 57.1613 56.3237 57.1284 49.3737C57.0927 41.7092 53.4275 36.8344 46.8187 36.7918C40.2659 36.7473 36.4992 42.0178 36.5103 49.3737C36.5195 56.3237 40.802 61.9019 46.8187 61.8069Z" fill="white"/>
<path d="M71.8032 61.1399L67.3103 51.7231V61.0852H60.397V37.459H70.4134C72.1359 37.459 73.6569 37.7857 75.1185 38.9526C76.7549 40.1918 77.9028 42.2359 77.9028 44.5387C77.9028 47.6316 76.1149 49.1794 73.7913 50.452L78.7884 61.1399H71.8032V61.1399Z" fill="white"/>
<path d="M46.8187 55.7338C48.4207 55.7352 49.3096 53.635 49.3378 49.2719C49.3754 45.1154 48.8457 42.9568 46.764 42.9698C44.8417 42.9795 44.2439 45.6275 44.2439 49.2227C44.2434 52.8152 45.0058 55.7273 46.8187 55.7338Z" fill="#E13A3E"/>
<path d="M67.3088 47.8754V42.2508C67.3088 42.2508 68.188 42.1057 68.916 42.691C69.6593 43.23 70.1668 44.1216 70.1589 45.0188C70.1543 45.9225 69.575 46.8864 68.9081 47.512C68.3909 47.9986 67.3088 47.8754 67.3088 47.8754Z" fill="#E13A3E"/>
<path d="M93.813 37.5552H100.631L95.3775 48.4224L100.779 61.1397H94.4391L88.9281 50.7173H88.9638V61.1397H82.1301V37.5552H88.9638V47.0646H89.0342L93.813 37.5552Z" fill="white"/>
<path d="M110.978 37.5112H104.36V61.1402H110.978V37.5112Z" fill="white"/>
<path d="M115.969 37.5356H122.68L127.039 47.2448L127.032 37.5356H133.93V61.1387L126.899 61.1132L122.73 51.3878L122.759 61.1387H115.969V37.5356Z" fill="white"/>
<path d="M83.5166 75.4098C83.5166 73.1048 85.355 71.2715 87.6675 71.2715C89.9851 71.2715 91.8119 73.1048 91.8119 75.4098C91.8119 77.7195 89.9851 79.5482 87.6675 79.5482C85.355 79.5482 83.5166 77.7195 83.5166 75.4098Z" fill="white"/>
<path d="M84.1914 75.4099C84.1914 77.3572 85.7735 78.8768 87.6675 78.8768C89.5634 78.8768 91.1437 77.3572 91.1437 75.4099C91.1437 73.4501 89.5634 71.9463 87.6675 71.9463C85.7735 71.9463 84.1914 73.4501 84.1914 75.4099Z" fill="#E13A3E"/>
<path d="M88.6626 77.3431L87.9555 76.1035H86.7343V77.3686L85.9507 77.3561L85.9627 73.2988H87.9694C88.8095 73.2988 89.4871 73.6737 89.5204 74.5028C89.5575 75.3944 89.2048 75.6817 88.582 75.7786L89.5204 77.3366L88.6626 77.3431Z" fill="white"/>
<path d="M86.7341 74.1235V75.2793H87.4038C88.0331 75.2793 88.7732 75.3868 88.7732 74.7547C88.7732 74.1648 88.4015 74.124 87.8473 74.124H86.7341V74.1235Z" fill="#E13A3E"/>
</svg>
